  0
SECTION
  2
HEADER
  9
$ACADVER
  1
AC1015
  9
$ACADMAINTVER
 70
     6
  9
$DWGCODEPAGE
  3
ANSI_1252
  9
$INSBASE
 10
0.0
 20
0.0
 30
0.0
  9
$EXTMIN
 10
1.000000000000000E+20
 20
1.000000000000000E+20
 30
1.000000000000000E+20
  9
$EXTMAX
 10
-1.000000000000000E+20
 20
-1.000000000000000E+20
 30
-1.000000000000000E+20
  9
$LIMMIN
 10
0.0
 20
0.0
  9
$LIMMAX
 10
12.0
 20
9.0
  9
$ORTHOMODE
 70
     0
  9
$REGENMODE
 70
     1
  9
$FILLMODE
 70
     1
  9
$QTEXTMODE
 70
     0
  9
$MIRRTEXT
 70
     1
  9
$LTSCALE
 40
1.0
  9
$ATTMODE
 70
     1
  9
$TEXTSIZE
 40
0.2
  9
$TRACEWID
 40
0.05
  9
$TEXTSTYLE
  7
Standard
  9
$CLAYER
  8
0
  9
$CELTYPE
  6
ByLayer
  9
$CECOLOR
 62
   256
  9
$CELTSCALE
 40
1.0
  9
$DISPSILH
 70
     0
  9
$DIMSCALE
 40
1.0
  9
$DIMASZ
 40
0.18
  9
$DIMEXO
 40
0.0625
  9
$DIMDLI
 40
0.38
  9
$DIMRND
 40
0.0
  9
$DIMDLE
 40
0.0
  9
$DIMEXE
 40
0.18
  9
$DIMTP
 40
0.0
  9
$DIMTM
 40
0.0
  9
$DIMTXT
 40
0.18
  9
$DIMCEN
 40
0.09
  9
$DIMTSZ
 40
0.0
  9
$DIMTOL
 70
     0
  9
$DIMLIM
 70
     0
  9
$DIMTIH
 70
     1
  9
$DIMTOH
 70
     1
  9
$DIMSE1
 70
     0
  9
$DIMSE2
 70
     0
  9
$DIMTAD
 70
     0
  9
$DIMZIN
 70
     0
  9
$DIMBLK
  1

  9
$DIMASO
 70
     1
  9
$DIMSHO
 70
     1
  9
$DIMPOST
  1

  9
$DIMAPOST
  1

  9
$DIMALT
 70
     0
  9
$DIMALTD
 70
     2
  9
$DIMALTF
 40
25.4
  9
$DIMLFAC
 40
1.0
  9
$DIMTOFL
 70
     0
  9
$DIMTVP
 40
0.0
  9
$DIMTIX
 70
     0
  9
$DIMSOXD
 70
     0
  9
$DIMSAH
 70
     0
  9
$DIMBLK1
  1

  9
$DIMBLK2
  1

  9
$DIMSTYLE
  2
Standard
  9
$DIMCLRD
 70
     0
  9
$DIMCLRE
 70
     0
  9
$DIMCLRT
 70
     0
  9
$DIMTFAC
 40
1.0
  9
$DIMGAP
 40
0.09
  9
$DIMJUST
 70
     0
  9
$DIMSD1
 70
     0
  9
$DIMSD2
 70
     0
  9
$DIMTOLJ
 70
     1
  9
$DIMTZIN
 70
     0
  9
$DIMALTZ
 70
     0
  9
$DIMALTTZ
 70
     0
  9
$DIMUPT
 70
     0
  9
$DIMDEC
 70
     4
  9
$DIMTDEC
 70
     4
  9
$DIMALTU
 70
     2
  9
$DIMALTTD
 70
     2
  9
$DIMTXSTY
  7
Standard
  9
$DIMAUNIT
 70
     0
  9
$DIMADEC
 70
     0
  9
$DIMALTRND
 40
0.0
  9
$DIMAZIN
 70
     0
  9
$DIMDSEP
 70
    46
  9
$DIMATFIT
 70
     3
  9
$DIMFRAC
 70
     0
  9
$DIMLDRBLK
  1

  9
$DIMLUNIT
 70
     2
  9
$DIMLWD
 70
    -2
  9
$DIMLWE
 70
    -2
  9
$DIMTMOVE
 70
     0
  9
$LUNITS
 70
     2
  9
$LUPREC
 70
     4
  9
$SKETCHINC
 40
0.1
  9
$FILLETRAD
 40
0.5
  9
$AUNITS
 70
     0
  9
$AUPREC
 70
     0
  9
$MENU
  1
.
  9
$ELEVATION
 40
0.0
  9
$PELEVATION
 40
0.0
  9
$THICKNESS
 40
0.0
  9
$LIMCHECK
 70
     0
  9
$CHAMFERA
 40
0.5
  9
$CHAMFERB
 40
0.5
  9
$CHAMFERC
 40
1.0
  9
$CHAMFERD
 40
0.0
  9
$SKPOLY
 70
     0
  9
$TDCREATE
 40
2458991.56766853
  9
$TDUCREATE
 40
2458991.734335197
  9
$TDUPDATE
 40
2458991.567668553
  9
$TDUUPDATE
 40
2458991.73433522
  9
$TDINDWG
 40
0.0000000116
  9
$TDUSRTIMER
 40
0.0000000116
  9
$USRTIMER
 70
     1
  9
$ANGBASE
 50
0.0
  9
$ANGDIR
 70
     0
  9
$PDMODE
 70
     0
  9
$PDSIZE
 40
0.0
  9
$PLINEWID
 40
0.0
  9
$SPLFRAME
 70
     0
  9
$SPLINETYPE
 70
     6
  9
$SPLINESEGS
 70
     8
  9
$HANDSEED
  5
93
  9
$SURFTAB1
 70
     6
  9
$SURFTAB2
 70
     6
  9
$SURFTYPE
 70
     6
  9
$SURFU
 70
     6
  9
$SURFV
 70
     6
  9
$UCSBASE
  2

  9
$UCSNAME
  2

  9
$UCSORG
 10
0.0
 20
0.0
 30
0.0
  9
$UCSXDIR
 10
1.0
 20
0.0
 30
0.0
  9
$UCSYDIR
 10
0.0
 20
1.0
 30
0.0
  9
$UCSORTHOREF
  2

  9
$UCSORTHOVIEW
 70
     0
  9
$UCSORGTOP
 10
0.0
 20
0.0
 30
0.0
  9
$UCSORGBOTTOM
 10
0.0
 20
0.0
 30
0.0
  9
$UCSORGLEFT
 10
0.0
 20
0.0
 30
0.0
  9
$UCSORGRIGHT
 10
0.0
 20
0.0
 30
0.0
  9
$UCSORGFRONT
 10
0.0
 20
0.0
 30
0.0
  9
$UCSORGBACK
 10
0.0
 20
0.0
 30
0.0
  9
$PUCSBASE
  2

  9
$PUCSNAME
  2

  9
$PUCSORG
 10
0.0
 20
0.0
 30
0.0
  9
$PUCSXDIR
 10
1.0
 20
0.0
 30
0.0
  9
$PUCSYDIR
 10
0.0
 20
1.0
 30
0.0
  9
$PUCSORTHOREF
  2

  9
$PUCSORTHOVIEW
 70
     0
  9
$PUCSORGTOP
 10
0.0
 20
0.0
 30
0.0
  9
$PUCSORGBOTTOM
 10
0.0
 20
0.0
 30
0.0
  9
$PUCSORGLEFT
 10
0.0
 20
0.0
 30
0.0
  9
$PUCSORGRIGHT
 10
0.0
 20
0.0
 30
0.0
  9
$PUCSORGFRONT
 10
0.0
 20
0.0
 30
0.0
  9
$PUCSORGBACK
 10
0.0
 20
0.0
 30
0.0
  9
$USERI1
 70
     0
  9
$USERI2
 70
     0
  9
$USERI3
 70
     0
  9
$USERI4
 70
     0
  9
$USERI5
 70
     0
  9
$USERR1
 40
0.0
  9
$USERR2
 40
0.0
  9
$USERR3
 40
0.0
  9
$USERR4
 40
0.0
  9
$USERR5
 40
0.0
  9
$WORLDVIEW
 70
     1
  9
$SHADEDGE
 70
     3
  9
$SHADEDIF
 70
    70
  9
$TILEMODE
 70
     1
  9
$MAXACTVP
 70
    64
  9
$PINSBASE
 10
0.0
 20
0.0
 30
0.0
  9
$PLIMCHECK
 70
     0
  9
$PEXTMIN
 10
1.000000000000000E+20
 20
1.000000000000000E+20
 30
1.000000000000000E+20
  9
$PEXTMAX
 10
-1.000000000000000E+20
 20
-1.000000000000000E+20
 30
-1.000000000000000E+20
  9
$PLIMMIN
 10
0.0
 20
0.0
  9
$PLIMMAX
 10
12.0
 20
9.0
  9
$UNITMODE
 70
     0
  9
$VISRETAIN
 70
     1
  9
$PLINEGEN
 70
     0
  9
$PSLTSCALE
 70
     1
  9
$TREEDEPTH
 70
  3020
  9
$CMLSTYLE
  2
Standard
  9
$CMLJUST
 70
     0
  9
$CMLSCALE
 40
1.0
  9
$PROXYGRAPHICS
 70
     1
  9
$MEASUREMENT
 70
     0
  9
$CELWEIGHT
370
    -1
  9
$ENDCAPS
280
     0
  9
$JOINSTYLE
280
     0
  9
$LWDISPLAY
290
     1
  9
$INSUNITS
 70
     1
  9
$HYPERLINKBASE
  1

  9
$STYLESHEET
  1

  9
$XEDIT
290
     1
  9
$CEPSNTYPE
380
     0
  9
$PSTYLEMODE
290
     1
  9
$FINGERPRINTGUID
  2
{EAB951AB-017D-4223-B611-1567634C8012}
  9
$VERSIONGUID
  2
{FAEB1C32-E019-11D5-929B-00C0DF256EC4}
  9
$EXTNAMES
290
     1
  9
$PSVPSCALE
 40
0.0
  9
$OLESTARTUP
290
     0
  0
ENDSEC
  0
SECTION
  2
CLASSES
  0
CLASS
  1
ACDBDICTIONARYWDFLT
  2
AcDbDictionaryWithDefault
  3
ObjectDBX Classes
 90
        0
280
     0
281
     0
  0
CLASS
  1
VISUALSTYLE
  2
AcDbVisualStyle
  3
ObjectDBX Classes
 90
     4095
280
     0
281
     0
  0
CLASS
  1
MATERIAL
  2
AcDbMaterial
  3
ObjectDBX Classes
 90
     1153
280
     0
281
     0
  0
CLASS
  1
SUN
  2
AcDbSun
  3
SCENEOE
 90
     1024
280
     0
281
     0
  0
CLASS
  1
DICTIONARYVAR
  2
AcDbDictionaryVar
  3
ObjectDBX Classes
 90
        0
280
     0
281
     0
  0
CLASS
  1
ACDBPLACEHOLDER
  2
AcDbPlaceHolder
  3
ObjectDBX Classes
 90
        0
280
     0
281
     0
  0
CLASS
  1
LAYOUT
  2
AcDbLayout
  3
ObjectDBX Classes
 90
        0
280
     0
281
     0
  0
ENDSEC
  0
SECTION
  2
TABLES
  0
TABLE
  2
VPORT
  5
8
330
0
100
AcDbSymbolTable
 70
     1
  0
VPORT
  5
29
330
8
100
AcDbSymbolTableRecord
100
AcDbViewportTableRecord
  2
*Active
 70
     0
 10
0.0
 20
0.0
 11
1.0
 21
1.0
 12
0.0
 22
0.0
 13
0.0
 23
0.0
 14
0.5
 24
0.5
 15
0.5
 25
0.5
 16
0.0
 26
0.0
 36
1.0
 17
30.0
 27
-25.0
 37
0.0
 40
50.0
 41
1.2
 42
50.0
 43
0.0
 44
0.0
 50
0.0
 51
0.0
 71
     0
 72
   100
 73
     1
 74
     3
 75
     0
 76
     0
 77
     0
 78
     0
281
     0
 65
     1
110
0.0
120
0.0
130
0.0
111
1.0
121
0.0
131
0.0
112
0.0
122
1.0
132
0.0
 79
     0
146
0.0
  0
ENDTAB
  0
TABLE
  2
LTYPE
  5
5
330
0
100
AcDbSymbolTable
 70
     1
  0
LTYPE
  5
14
330
5
100
AcDbSymbolTableRecord
100
AcDbLinetypeTableRecord
  2
ByBlock
 70
     0
  3

 72
    65
 73
     0
 40
0.0
  0
LTYPE
  5
15
330
5
100
AcDbSymbolTableRecord
100
AcDbLinetypeTableRecord
  2
ByLayer
 70
     0
  3

 72
    65
 73
     0
 40
0.0
  0
LTYPE
  5
16
330
5
100
AcDbSymbolTableRecord
100
AcDbLinetypeTableRecord
  2
Continuous
 70
     0
  3
Solid line
 72
    65
 73
     0
 40
0.0
  0
ENDTAB
  0
TABLE
  2
LAYER
  5
2
330
0
100
AcDbSymbolTable
 70
     2
  0
LAYER
  5
10
330
2
100
AcDbSymbolTableRecord
100
AcDbLayerTableRecord
  2
0
 70
     0
 62
     7
  6
Continuous
370
    -3
390
F
  0
LAYER
  5
40
330
2
100
AcDbSymbolTableRecord
100
AcDbLayerTableRecord
  2
Layer 1
 70
     0
 62
     7
  6
Continuous
370
    -3
390
F
  0
ENDTAB
  0
TABLE
  2
STYLE
  5
3
330
0
100
AcDbSymbolTable
 70
     1
  0
STYLE
  5
11
330
3
100
AcDbSymbolTableRecord
100
AcDbTextStyleTableRecord
  2
Standard
 70
     0
 40
0.0
 41
1.0
 50
0.0
 71
     0
 42
0.2
  3
txt
  4

  0
ENDTAB
  0
TABLE
  2
VIEW
  5
6
330
0
100
AcDbSymbolTable
 70
     0
  0
ENDTAB
  0
TABLE
  2
UCS
  5
7
330
0
100
AcDbSymbolTable
 70
     0
  0
ENDTAB
  0
TABLE
  2
APPID
  5
9
330
0
100
AcDbSymbolTable
 70
     1
  0
APPID
  5
12
330
9
100
AcDbSymbolTableRecord
100
AcDbRegAppTableRecord
  2
ACAD
 70
     0
  0
ENDTAB
  0
TABLE
  2
DIMSTYLE
  5
A
330
0
100
AcDbSymbolTable
 70
     1
100
AcDbDimStyleTable
  0
DIMSTYLE
105
27
330
A
100
AcDbSymbolTableRecord
100
AcDbDimStyleTableRecord
  2
Standard
 70
     0
178
     0
340
11
  0
ENDTAB
  0
TABLE
  2
BLOCK_RECORD
  5
1
330
0
100
AcDbSymbolTable
 70
     1
  0
BLOCK_RECORD
  5
1F
330
1
100
AcDbSymbolTableRecord
100
AcDbBlockTableRecord
  2
*Model_Space
340
22
  0
BLOCK_RECORD
  5
1B
330
1
100
AcDbSymbolTableRecord
100
AcDbBlockTableRecord
  2
*Paper_Space
340
1E
  0
BLOCK_RECORD
  5
23
330
1
100
AcDbSymbolTableRecord
100
AcDbBlockTableRecord
  2
*Paper_Space0
340
26
  0
ENDTAB
  0
ENDSEC
  0
SECTION
  2
BLOCKS
  0
BLOCK
  5
20
330
1F
100
AcDbEntity
  8
0
100
AcDbBlockBegin
  2
*Model_Space
 70
     0
 10
0.0
 20
0.0
 30
0.0
  3
*Model_Space
  1

  0
ENDBLK
  5
21
330
1F
100
AcDbEntity
  8
0
100
AcDbBlockEnd
  0
BLOCK
  5
1C
330
1B
100
AcDbEntity
 67
     1
  8
0
100
AcDbBlockBegin
  2
*Paper_Space
 70
     0
 10
0.0
 20
0.0
 30
0.0
  3
*Paper_Space
  1

  0
ENDBLK
  5
1D
330
1B
100
AcDbEntity
 67
     1
  8
0
100
AcDbBlockEnd
  0
BLOCK
  5
24
330
23
100
AcDbEntity
  8
0
100
AcDbBlockBegin
  2
*Paper_Space0
 70
     0
 10
0.0
 20
0.0
 30
0.0
  3
*Paper_Space0
  1

  0
ENDBLK
  5
25
330
23
100
AcDbEntity
  8
0
100
AcDbBlockEnd
  0
ENDSEC
  0
SECTION
  2
ENTITIES
  0
SPLINE
  5
41
330
1F
100
AcDbEntity
  8
Layer 1
 62
     1
370
     9
100
AcDbSpline
210
0.0
220
0.0
230
1.0
 70
    11
 71
     3
 72
    17
 73
    13
 74
     0
 42
0.0000000001
 43
0.0000000001
 12
1.0
 22
0.0
 32
0.0
 13
1.0
 23
0.0
 33
0.0
 40
0.0
 40
0.0
 40
0.0
 40
0.0
 40
1.0
 40
1.0
 40
1.0
 40
2.0
 40
2.0
 40
2.0
 40
3.0
 40
3.0
 40
3.0
 40
4.0
 40
4.0
 40
4.0
 40
4.0
 10
34.50652043483917
 20
-43.69173764008833
 30
0.0
 10
34.50652043483917
 20
-43.74158133875777
 30
0.0
 10
34.4661141335086
 20
-43.78198764008832
 30
0.0
 10
34.41627043483916
 20
-43.78198764008832
 30
0.0
 10
34.36642673616971
 20
-43.78198764008832
 30
0.0
 10
34.32602043483917
 20
-43.74158133875777
 30
0.0
 10
34.32602043483917
 20
-43.69173764008833
 30
0.0
 10
34.32602043483917
 20
-43.64189394141888
 30
0.0
 10
34.36642673616971
 20
-43.60148764008833
 30
0.0
 10
34.41627043483916
 20
-43.60148764008833
 30
0.0
 10
34.4661141335086
 20
-43.60148764008833
 30
0.0
 10
34.50652043483917
 20
-43.64189394141888
 30
0.0
 10
34.50652043483917
 20
-43.69173764008833
 30
0.0
  0
SPLINE
  5
42
330
1F
100
AcDbEntity
  8
Layer 1
 62
     1
370
     9
100
AcDbSpline
210
0.0
220
0.0
230
1.0
 70
    11
 71
     3
 72
    17
 73
    13
 74
     0
 42
0.0000000001
 43
0.0000000001
 12
1.0
 22
0.0
 32
0.0
 13
1.0
 23
0.0
 33
0.0
 40
0.0
 40
0.0
 40
0.0
 40
0.0
 40
1.0
 40
1.0
 40
1.0
 40
2.0
 40
2.0
 40
2.0
 40
3.0
 40
3.0
 40
3.0
 40
4.0
 40
4.0
 40
4.0
 40
4.0
 10
40.28985457266779
 20
-45.45529393506917
 30
0.0
 10
40.28985457266779
 20
-45.50513763373861
 30
0.0
 10
40.24944827133721
 20
-45.54554393506916
 30
0.0
 10
40.19960457266777
 20
-45.54554393506916
 30
0.0
 10
40.14976087399832
 20
-45.54554393506916
 30
0.0
 10
40.10935457266778
 20
-45.50513763373861
 30
0.0
 10
40.10935457266778
 20
-45.45529393506917
 30
0.0
 10
40.10935457266778
 20
-45.40545023639972
 30
0.0
 10
40.14976087399832
 20
-45.36504393506917
 30
0.0
 10
40.19960457266777
 20
-45.36504393506917
 30
0.0
 10
40.24944827133721
 20
-45.36504393506917
 30
0.0
 10
40.28985457266779
 20
-45.40545023639972
 30
0.0
 10
40.28985457266779
 20
-45.45529393506917
 30
0.0
  0
SPLINE
  5
43
330
1F
100
AcDbEntity
  8
Layer 1
 62
     1
370
     9
100
AcDbSpline
210
0.0
220
0.0
230
1.0
 70
    11
 71
     3
 72
    17
 73
    13
 74
     0
 42
0.0000000001
 43
0.0000000001
 12
1.0
 22
0.0
 32
0.0
 13
1.0
 23
0.0
 33
0.0
 40
0.0
 40
0.0
 40
0.0
 40
0.0
 40
1.0
 40
1.0
 40
1.0
 40
2.0
 40
2.0
 40
2.0
 40
3.0
 40
3.0
 40
3.0
 40
4.0
 40
4.0
 40
4.0
 40
4.0
 10
40.72855098694637
 20
-36.63332049927471
 30
0.0
 10
40.72855098694637
 20
-36.69372664378403
 30
0.0
 10
40.67958213145569
 20
-36.74269549927471
 30
0.0
 10
40.61917598694637
 20
-36.74269549927471
 30
0.0
 10
40.55876984243696
 20
-36.74269549927471
 30
0.0
 10
40.50980098694637
 20
-36.69372664378403
 30
0.0
 10
40.50980098694637
 20
-36.63332049927471
 30
0.0
 10
40.50980098694637
 20
-36.57291435476529
 30
0.0
 10
40.55876984243696
 20
-36.52394549927471
 30
0.0
 10
40.61917598694637
 20
-36.52394549927471
 30
0.0
 10
40.67958213145569
 20
-36.52394549927471
 30
0.0
 10
40.72855098694637
 20
-36.57291435476529
 30
0.0
 10
40.72855098694637
 20
-36.63332049927471
 30
0.0
  0
SPLINE
  5
44
330
1F
100
AcDbEntity
  8
Layer 1
 62
     1
370
     9
100
AcDbSpline
210
0.0
220
0.0
230
1.0
 70
    11
 71
     3
 72
    17
 73
    13
 74
     0
 42
0.0000000001
 43
0.0000000001
 12
1.0
 22
0.0
 32
0.0
 13
1.0
 23
0.0
 33
0.0
 40
0.0
 40
0.0
 40
0.0
 40
0.0
 40
1.0
 40
1.0
 40
1.0
 40
2.0
 40
2.0
 40
2.0
 40
3.0
 40
3.0
 40
3.0
 40
4.0
 40
4.0
 40
4.0
 40
4.0
 10
39.54168118227582
 20
-36.63332049927471
 30
0.0
 10
39.54168118227582
 20
-36.69372664378403
 30
0.0
 10
39.49271232678514
 20
-36.74269549927471
 30
0.0
 10
39.43230618227582
 20
-36.74269549927471
 30
0.0
 10
39.37190003776638
 20
-36.74269549927471
 30
0.0
 10
39.32293118227582
 20
-36.69372664378403
 30
0.0
 10
39.32293118227582
 20
-36.63332049927471
 30
0.0
 10
39.32293118227582
 20
-36.57291435476529
 30
0.0
 10
39.37190003776638
 20
-36.52394549927471
 30
0.0
 10
39.43230618227582
 20
-36.52394549927471
 30
0.0
 10
39.49271232678514
 20
-36.52394549927471
 30
0.0
 10
39.54168118227582
 20
-36.57291435476529
 30
0.0
 10
39.54168118227582
 20
-36.63332049927471
 30
0.0
  0
SPLINE
  5
45
330
1F
100
AcDbEntity
  8
Layer 1
 62
     1
370
     9
100
AcDbSpline
210
0.0
220
0.0
230
1.0
 70
    11
 71
     3
 72
    17
 73
    13
 74
     0
 42
0.0000000001
 43
0.0000000001
 12
1.0
 22
0.0
 32
0.0
 13
1.0
 23
0.0
 33
0.0
 40
0.0
 40
0.0
 40
0.0
 40
0.0
 40
1.0
 40
1.0
 40
1.0
 40
2.0
 40
2.0
 40
2.0
 40
3.0
 40
3.0
 40
3.0
 40
4.0
 40
4.0
 40
4.0
 40
4.0
 10
50.13264737284736
 20
-36.63332049927471
 30
0.0
 10
50.13264737284736
 20
-36.69372664378403
 30
0.0
 10
50.08367851735667
 20
-36.74269549927471
 30
0.0
 10
50.02327237284736
 20
-36.74269549927471
 30
0.0
 10
49.96286622833792
 20
-36.74269549927471
 30
0.0
 10
49.91389737284736
 20
-36.69372664378403
 30
0.0
 10
49.91389737284736
 20
-36.63332049927471
 30
0.0
 10
49.91389737284736
 20
-36.57291435476529
 30
0.0
 10
49.96286622833792
 20
-36.52394549927471
 30
0.0
 10
50.02327237284736
 20
-36.52394549927471
 30
0.0
 10
50.08367851735667
 20
-36.52394549927471
 30
0.0
 10
50.13264737284736
 20
-36.57291435476529
 30
0.0
 10
50.13264737284736
 20
-36.63332049927471
 30
0.0
  0
SPLINE
  5
46
330
1F
100
AcDbEntity
  8
Layer 1
 62
     1
370
     9
100
AcDbSpline
210
0.0
220
0.0
230
1.0
 70
    11
 71
     3
 72
    17
 73
    13
 74
     0
 42
0.0000000001
 43
0.0000000001
 12
1.0
 22
0.0
 32
0.0
 13
1.0
 23
0.0
 33
0.0
 40
0.0
 40
0.0
 40
0.0
 40
0.0
 40
1.0
 40
1.0
 40
1.0
 40
2.0
 40
2.0
 40
2.0
 40
3.0
 40
3.0
 40
3.0
 40
4.0
 40
4.0
 40
4.0
 40
4.0
 10
48.94577756817681
 20
-36.63332049927471
 30
0.0
 10
48.94577756817681
 20
-36.69372664378403
 30
0.0
 10
48.89680871268612
 20
-36.74269549927471
 30
0.0
 10
48.83640256817681
 20
-36.74269549927471
 30
0.0
 10
48.77599642366737
 20
-36.74269549927471
 30
0.0
 10
48.72702756817681
 20
-36.69372664378403
 30
0.0
 10
48.72702756817681
 20
-36.63332049927471
 30
0.0
 10
48.72702756817681
 20
-36.57291435476529
 30
0.0
 10
48.77599642366737
 20
-36.52394549927471
 30
0.0
 10
48.83640256817681
 20
-36.52394549927471
 30
0.0
 10
48.89680871268612
 20
-36.52394549927471
 30
0.0
 10
48.94577756817681
 20
-36.57291435476529
 30
0.0
 10
48.94577756817681
 20
-36.63332049927471
 30
0.0
  0
SPLINE
  5
47
330
1F
100
AcDbEntity
  8
Layer 1
 62
     1
370
     9
100
AcDbSpline
210
0.0
220
0.0
230
1.0
 70
    11
 71
     3
 72
    17
 73
    13
 74
     0
 42
0.0000000001
 43
0.0000000001
 12
1.0
 22
0.0
 32
0.0
 13
1.0
 23
0.0
 33
0.0
 40
0.0
 40
0.0
 40
0.0
 40
0.0
 40
1.0
 40
1.0
 40
1.0
 40
2.0
 40
2.0
 40
2.0
 40
3.0
 40
3.0
 40
3.0
 40
4.0
 40
4.0
 40
4.0
 40
4.0
 10
25.48308617965013
 20
-43.69173763988584
 30
0.0
 10
25.48308617964792
 20
-43.74158133855528
 30
0.0
 10
25.52349248097667
 20
-43.78198763988762
 30
0.0
 10
25.57333617964611
 20
-43.78198763988985
 30
0.0
 10
25.62317987831555
 20
-43.78198763989207
 30
0.0
 10
25.66358617964791
 20
-43.74158133856334
 30
0.0
 10
25.66358617965014
 20
-43.69173763989389
 30
0.0
 10
25.66358617965236
 20
-43.64189394122445
 30
0.0
 10
25.62317987832361
 20
-43.60148763989208
 30
0.0
 10
25.57333617965417
 20
-43.60148763988986
 30
0.0
 10
25.52349248098471
 20
-43.60148763988764
 30
0.0
 10
25.48308617965236
 20
-43.64189394121639
 30
0.0
 10
25.48308617965013
 20
-43.69173763988584
 30
0.0
  0
SPLINE
  5
48
330
1F
100
AcDbEntity
  8
Layer 1
 62
     1
370
     9
100
AcDbSpline
210
0.0
220
0.0
230
1.0
 70
    11
 71
     3
 72
    17
 73
    13
 74
     0
 42
0.0000000001
 43
0.0000000001
 12
1.0
 22
0.0
 32
0.0
 13
1.0
 23
0.0
 33
0.0
 40
0.0
 40
0.0
 40
0.0
 40
0.0
 40
1.0
 40
1.0
 40
1.0
 40
2.0
 40
2.0
 40
2.0
 40
3.0
 40
3.0
 40
3.0
 40
4.0
 40
4.0
 40
4.0
 40
4.0
 10
19.26105562785986
 20
-36.63332049879278
 30
0.0
 10
19.26105562785722
 20
-36.69372664330209
 30
0.0
 10
19.31002448334569
 20
-36.742695498795
 30
0.0
 10
19.370430627855
 20
-36.74269549879762
 30
0.0
 10
19.4308367723643
 20
-36.74269549880041
 30
0.0
 10
19.47980562785722
 20
-36.69372664331195
 30
0.0
 10
19.47980562785986
 20
-36.63332049880263
 30
0.0
 10
19.47980562786264
 20
-36.57291435429318
 30
0.0
 10
19.43083677237416
 20
-36.52394549880041
 30
0.0
 10
19.37043062786486
 20
-36.52394549879762
 30
0.0
 10
19.31002448335542
 20
-36.523945498795
 30
0.0
 10
19.26105562786264
 20
-36.57291435428346
 30
0.0
 10
19.26105562785986
 20
-36.63332049879278
 30
0.0
  0
SPLINE
  5
49
330
1F
100
AcDbEntity
  8
Layer 1
 62
     1
370
     9
100
AcDbSpline
210
0.0
220
0.0
230
1.0
 70
    11
 71
     3
 72
    17
 73
    13
 74
     0
 42
0.0000000001
 43
0.0000000001
 12
1.0
 22
0.0
 32
0.0
 13
1.0
 23
0.0
 33
0.0
 40
0.0
 40
0.0
 40
0.0
 40
0.0
 40
1.0
 40
1.0
 40
1.0
 40
2.0
 40
2.0
 40
2.0
 40
3.0
 40
3.0
 40
3.0
 40
4.0
 40
4.0
 40
4.0
 40
4.0
 10
20.44792543253042
 20
-36.63332049884611
 30
0.0
 10
20.44792543252778
 20
-36.6937266433554
 30
0.0
 10
20.49689428801611
 20
-36.74269549884821
 30
0.0
 10
20.55730043252555
 20
-36.74269549885098
 30
0.0
 10
20.61770657703486
 20
-36.74269549885376
 30
0.0
 10
20.66667543252778
 20
-36.69372664336527
 30
0.0
 10
20.66667543253042
 20
-36.63332049885583
 30
0.0
 10
20.66667543253319
 20
-36.57291435434652
 30
0.0
 10
20.61770657704472
 20
-36.52394549885376
 30
0.0
 10
20.55730043253528
 20
-36.52394549885098
 30
0.0
 10
20.49689428802597
 20
-36.52394549884821
 30
0.0
 10
20.44792543253319
 20
-36.57291435433667
 30
0.0
 10
20.44792543253042
 20
-36.63332049884611
 30
0.0
  0
SPLINE
  5
4A
330
1F
100
AcDbEntity
  8
Layer 1
 62
     1
370
     9
100
AcDbSpline
210
0.0
220
0.0
230
1.0
 70
    11
 71
     3
 72
    17
 73
    13
 74
     0
 42
0.0000000001
 43
0.0000000001
 12
1.0
 22
0.0
 32
0.0
 13
1.0
 23
0.0
 33
0.0
 40
0.0
 40
0.0
 40
0.0
 40
0.0
 40
1.0
 40
1.0
 40
1.0
 40
2.0
 40
2.0
 40
2.0
 40
3.0
 40
3.0
 40
3.0
 40
4.0
 40
4.0
 40
4.0
 40
4.0
 10
9.856959241958949
 20
-36.63332049837057
 30
0.0
 10
9.85695924195622
 20
-36.69372664287999
 30
0.0
 10
9.905928097444656
 20
-36.74269549837279
 30
0.0
 10
9.966334241954023
 20
-36.74269549837542
 30
0.0
 10
10.0267403864634
 20
-36.7426954983782
 30
0.0
 10
10.07570924195622
 20
-36.69372664288971
 30
0.0
 10
10.07570924195895
 20
-36.63332049838042
 30
0.0
 10
10.07570924196165
 20
-36.57291435387098
 30
0.0
 10
10.02674038647322
 20
-36.5239454983782
 30
0.0
 10
9.966334241963851
 20
-36.52394549837542
 30
0.0
 10
9.905928097454483
 20
-36.52394549837279
 30
0.0
 10
9.856959241961652
 20
-36.57291435386125
 30
0.0
 10
9.856959241958949
 20
-36.63332049837057
 30
0.0
  0
SPLINE
  5
4B
330
1F
100
AcDbEntity
  8
Layer 1
 62
     1
370
     9
100
AcDbSpline
210
0.0
220
0.0
230
1.0
 70
    11
 71
     3
 72
    17
 73
    13
 74
     0
 42
0.0000000001
 43
0.0000000001
 12
1.0
 22
0.0
 32
0.0
 13
1.0
 23
0.0
 33
0.0
 40
0.0
 40
0.0
 40
0.0
 40
0.0
 40
1.0
 40
1.0
 40
1.0
 40
2.0
 40
2.0
 40
2.0
 40
3.0
 40
3.0
 40
3.0
 40
4.0
 40
4.0
 40
4.0
 40
4.0
 10
11.04382904662945
 20
-36.63332049842388
 30
0.0
 10
11.04382904662673
 20
-36.69372664293319
 30
0.0
 10
11.09279790211518
 20
-36.74269549842609
 30
0.0
 10
11.15320404662455
 20
-36.74269549842875
 30
0.0
 10
11.2136101911339
 20
-36.74269549843153
 30
0.0
 10
11.26257904662673
 20
-36.69372664294304
 30
0.0
 10
11.26257904662945
 20
-36.63332049843375
 30
0.0
 10
11.26257904663217
 20
-36.57291435392431
 30
0.0
 10
11.21361019114373
 20
-36.52394549843153
 30
0.0
 10
11.15320404663436
 20
-36.52394549842875
 30
0.0
 10
11.092797902125
 20
-36.52394549842609
 30
0.0
 10
11.04382904663217
 20
-36.57291435391446
 30
0.0
 10
11.04382904662945
 20
-36.63332049842388
 30
0.0
  0
SPLINE
  5
4C
330
1F
100
AcDbEntity
  8
Layer 1
 62
     1
370
     9
100
AcDbSpline
210
0.0
220
0.0
230
1.0
 70
    11
 71
     3
 72
    17
 73
    13
 74
     0
 42
0.0000000001
 43
0.0000000001
 12
1.0
 22
0.0
 32
0.0
 13
1.0
 23
0.0
 33
0.0
 40
0.0
 40
0.0
 40
0.0
 40
0.0
 40
1.0
 40
1.0
 40
1.0
 40
2.0
 40
2.0
 40
2.0
 40
3.0
 40
3.0
 40
3.0
 40
4.0
 40
4.0
 40
4.0
 40
4.0
 10
41.32871250890805
 20
-24.36194444442388
 30
0.0
 10
41.32871250887708
 20
-25.05230038167388
 30
0.0
 10
41.53354223581846
 20
-25.61194444443304
 30
0.0
 10
41.78621250885195
 20
-25.61194444444431
 30
0.0
 10
42.0388827818854
 20
-25.6119444444557
 30
0.0
 10
42.24371250887707
 20
-25.05230038171486
 30
0.0
 10
42.24371250890805
 20
-24.36194444446486
 30
0.0
 10
42.24371250893902
 20
-23.67158850721487
 30
0.0
 10
42.03888278199762
 20
-23.11194444445569
 30
0.0
 10
41.78621250896418
 20
-23.11194444444431
 30
0.0
 10
41.53354223593067
 20
-23.11194444443305
 30
0.0
 10
41.32871250893903
 20
-23.67158850717389
 30
0.0
 10
41.32871250890805
 20
-24.36194444442388
 30
0.0
  0
SPLINE
  5
4D
330
1F
100
AcDbEntity
  8
Layer 1
 62
     1
370
     9
100
AcDbSpline
210
0.0
220
0.0
230
1.0
 70
    11
 71
     3
 72
    17
 73
    13
 74
     0
 42
0.0000000001
 43
0.0000000001
 12
1.0
 22
0.0
 32
0.0
 13
1.0
 23
0.0
 33
0.0
 40
0.0
 40
0.0
 40
0.0
 40
0.0
 40
1.0
 40
1.0
 40
1.0
 40
2.0
 40
2.0
 40
2.0
 40
3.0
 40
3.0
 40
3.0
 40
4.0
 40
4.0
 40
4.0
 40
4.0
 10
19.88700204174236
 20
-45.45529393461099
 30
0.0
 10
19.88700204174236
 20
-45.50886555534152
 30
0.0
 10
19.84357366247291
 20
-45.55229393461097
 30
0.0
 10
19.79000204174235
 20
-45.55229393461097
 30
0.0
 10
19.73643042101181
 20
-45.55229393461097
 30
0.0
 10
19.69300204174236
 20
-45.50886555534152
 30
0.0
 10
19.69300204174236
 20
-45.45529393461099
 30
0.0
 10
19.69300204174236
 20
-45.40172231388043
 30
0.0
 10
19.73643042101181
 20
-45.35829393461098
 30
0.0
 10
19.79000204174235
 20
-45.35829393461098
 30
0.0
 10
19.84357366247291
 20
-45.35829393461098
 30
0.0
 10
19.88700204174236
 20
-45.40172231388043
 30
0.0
 10
19.88700204174236
 20
-45.45529393461099
 30
0.0
  0
SPLINE
  5
4E
330
1F
100
AcDbEntity
  8
Layer 1
 62
     1
370
     9
100
AcDbSpline
210
0.0
220
0.0
230
1.0
 70
    11
 71
     3
 72
    17
 73
    13
 74
     0
 42
0.0000000001
 43
0.0000000001
 12
1.0
 22
0.0
 32
0.0
 13
1.0
 23
0.0
 33
0.0
 40
0.0
 40
0.0
 40
0.0
 40
0.0
 40
1.0
 40
1.0
 40
1.0
 40
2.0
 40
2.0
 40
2.0
 40
3.0
 40
3.0
 40
3.0
 40
4.0
 40
4.0
 40
4.0
 40
4.0
 10
20.71836323911514
 20
-47.16089438923819
 30
0.0
 10
20.71836323911514
 20
-47.21446600996875
 30
0.0
 10
20.6749348598457
 20
-47.25789438923819
 30
0.0
 10
20.62136323911514
 20
-47.25789438923819
 30
0.0
 10
20.56779161838459
 20
-47.25789438923819
 30
0.0
 10
20.52436323911514
 20
-47.21446600996875
 30
0.0
 10
20.52436323911514
 20
-47.16089438923819
 30
0.0
 10
20.52436323911514
 20
-47.10732276850765
 30
0.0
 10
20.56779161838459
 20
-47.06389438923821
 30
0.0
 10
20.62136323911514
 20
-47.06389438923821
 30
0.0
 10
20.6749348598457
 20
-47.06389438923821
 30
0.0
 10
20.71836323911514
 20
-47.10732276850765
 30
0.0
 10
20.71836323911514
 20
-47.16089438923819
 30
0.0
  0
SPLINE
  5
4F
330
1F
100
AcDbEntity
  8
Layer 1
 62
     1
370
     9
100
AcDbSpline
210
0.0
220
0.0
230
1.0
 70
    11
 71
     3
 72
    17
 73
    13
 74
     0
 42
0.0000000001
 43
0.0000000001
 12
1.0
 22
0.0
 32
0.0
 13
1.0
 23
0.0
 33
0.0
 40
0.0
 40
0.0
 40
0.0
 40
0.0
 40
1.0
 40
1.0
 40
1.0
 40
2.0
 40
2.0
 40
2.0
 40
3.0
 40
3.0
 40
3.0
 40
4.0
 40
4.0
 40
4.0
 40
4.0
 10
22.03186429394306
 20
-48.52067198322667
 30
0.0
 10
22.03186429394306
 20
-48.57424360395736
 30
0.0
 10
21.98843591467361
 20
-48.61767198322665
 30
0.0
 10
21.93486429394305
 20
-48.61767198322665
 30
0.0
 10
21.88129267321235
 20
-48.61767198322665
 30
0.0
 10
21.83786429394306
 20
-48.57424360395736
 30
0.0
 10
21.83786429394306
 20
-48.52067198322667
 30
0.0
 10
21.83786429394306
 20
-48.46710036249611
 30
0.0
 10
21.88129267321235
 20
-48.42367198322666
 30
0.0
 10
21.93486429394305
 20
-48.42367198322666
 30
0.0
 10
21.98843591467361
 20
-48.42367198322666
 30
0.0
 10
22.03186429394306
 20
-48.46710036249611
 30
0.0
 10
22.03186429394306
 20
-48.52067198322667
 30
0.0
  0
SPLINE
  5
50
330
1F
100
AcDbEntity
  8
Layer 1
 62
     1
370
     9
100
AcDbSpline
210
0.0
220
0.0
230
1.0
 70
    11
 71
     3
 72
    29
 73
    25
 74
     0
 42
0.0000000001
 43
0.0000000001
 12
1.0
 22
0.0
 32
0.0
 13
1.0
 23
0.0
 33
0.0
 40
0.0
 40
0.0
 40
0.0
 40
0.0
 40
1.0
 40
1.0
 40
1.0
 40
2.0
 40
2.0
 40
2.0
 40
3.0
 40
3.0
 40
3.0
 40
4.0
 40
4.0
 40
4.0
 40
5.0
 40
5.0
 40
5.0
 40
6.0
 40
6.0
 40
6.0
 40
7.0
 40
7.0
 40
7.0
 40
8.0
 40
8.0
 40
8.0
 40
8.0
 10
23.5457763671875
 20
-29.36256239149305
 30
0.0
 10
22.625732421875
 20
-29.36256239149305
 30
0.0
 10
21.76075575086805
 20
-29.0042724609375
 30
0.0
 10
21.1101820203993
 20
-28.35370551215278
 30
0.0
 10
20.45961507161458
 20
-27.70313856336805
 30
0.0
 10
20.10133192274305
 20
-26.83816189236111
 30
0.0
 10
20.10133192274305
 20
-25.91811794704861
 30
0.0
 10
20.10133192274305
 20
-24.99807400173611
 30
0.0
 10
20.45961507161458
 20
-24.13309733072916
 30
0.0
 10
21.1101820203993
 20
-23.48253038194444
 30
0.0
 10
21.76075575086805
 20
-22.83196343315972
 30
0.0
 10
22.625732421875
 20
-22.47368028428819
 30
0.0
 10
23.5457763671875
 20
-22.47368028428819
 30
0.0
 10
24.4658203125
 20
-22.47368028428819
 30
0.0
 10
25.33079698350694
 20
-22.83196343315972
 30
0.0
 10
25.98136393229166
 20
-23.48253038194444
 30
0.0
 10
26.63193766276041
 20
-24.13310411241319
 30
0.0
 10
26.99022081163194
 20
-24.99807400173611
 30
0.0
 10
26.99022081163194
 20
-25.91811794704861
 30
0.0
 10
26.99022081163194
 20
-26.83816189236111
 30
0.0
 10
26.63193766276041
 20
-27.70313856336805
 30
0.0
 10
25.98136393229166
 20
-28.35370551215278
 30
0.0
 10
25.33079698350694
 20
-29.0042724609375
 30
0.0
 10
24.4658203125
 20
-29.36256239149305
 30
0.0
 10
23.5457763671875
 20
-29.36256239149305
 30
0.0
  0
SPLINE
  5
51
330
1F
100
AcDbEntity
  8
Layer 1
 62
     1
370
     9
100
AcDbSpline
210
0.0
220
0.0
230
1.0
 70
    11
 71
     3
 72
    29
 73
    25
 74
     0
 42
0.0000000001
 43
0.0000000001
 12
1.0
 22
0.0
 32
0.0
 13
1.0
 23
0.0
 33
0.0
 40
0.0
 40
0.0
 40
0.0
 40
0.0
 40
1.0
 40
1.0
 40
1.0
 40
2.0
 40
2.0
 40
2.0
 40
3.0
 40
3.0
 40
3.0
 40
4.0
 40
4.0
 40
4.0
 40
5.0
 40
5.0
 40
5.0
 40
6.0
 40
6.0
 40
6.0
 40
7.0
 40
7.0
 40
7.0
 40
8.0
 40
8.0
 40
8.0
 40
8.0
 10
36.44383409288194
 20
-29.36256239149305
 30
0.0
 10
35.52379014756944
 20
-29.36256239149305
 30
0.0
 10
34.6588134765625
 20
-29.0042724609375
 30
0.0
 10
34.00824652777778
 20
-28.35370551215278
 30
0.0
 10
33.35767957899306
 20
-27.70313856336805
 30
0.0
 10
32.9993896484375
 20
-26.83816189236111
 30
0.0
 10
32.9993896484375
 20
-25.91811794704861
 30
0.0
 10
32.9993896484375
 20
-24.99807400173611
 30
0.0
 10
33.35767957899306
 20
-24.13309733072916
 30
0.0
 10
34.00824652777778
 20
-23.48253038194444
 30
0.0
 10
34.6588134765625
 20
-22.83196343315972
 30
0.0
 10
35.52379014756944
 20
-22.47368028428819
 30
0.0
 10
36.44383409288194
 20
-22.47368028428819
 30
0.0
 10
37.36387803819444
 20
-22.47368028428819
 30
0.0
 10
38.22885470920139
 20
-22.83196343315972
 30
0.0
 10
38.87942165798611
 20
-23.48253038194444
 30
0.0
 10
39.52998860677083
 20
-24.13309733072916
 30
0.0
 10
39.88827853732639
 20
-24.99807400173611
 30
0.0
 10
39.88827853732639
 20
-25.91811794704861
 30
0.0
 10
39.88827853732639
 20
-26.83816189236111
 30
0.0
 10
39.52998860677083
 20
-27.70313856336805
 30
0.0
 10
38.87942165798611
 20
-28.35370551215278
 30
0.0
 10
38.22885470920139
 20
-29.0042724609375
 30
0.0
 10
37.36387803819444
 20
-29.36256239149305
 30
0.0
 10
36.44383409288194
 20
-29.36256239149305
 30
0.0
  0
SPLINE
  5
52
330
1F
100
AcDbEntity
  8
Layer 1
 62
     1
370
     9
100
AcDbSpline
210
0.0
220
0.0
230
1.0
 70
    11
 71
     3
 72
   170
 73
   166
 74
     0
 42
0.0000000001
 43
0.0000000001
 12
1.0
 22
0.0
 32
0.0
 13
1.0
 23
0.0
 33
0.0
 40
0.0
 40
0.0
 40
0.0
 40
0.0
 40
1.0
 40
1.0
 40
1.0
 40
2.0
 40
2.0
 40
2.0
 40
3.0
 40
3.0
 40
3.0
 40
4.0
 40
4.0
 40
4.0
 40
5.0
 40
5.0
 40
5.0
 40
6.0
 40
6.0
 40
6.0
 40
7.0
 40
7.0
 40
7.0
 40
8.0
 40
8.0
 40
8.0
 40
9.0
 40
9.0
 40
9.0
 40
10.0
 40
10.0
 40
10.0
 40
11.0
 40
11.0
 40
11.0
 40
12.0
 40
12.0
 40
12.0
 40
13.0
 40
13.0
 40
13.0
 40
14.0
 40
14.0
 40
14.0
 40
15.0
 40
15.0
 40
15.0
 40
16.0
 40
16.0
 40
16.0
 40
17.0
 40
17.0
 40
17.0
 40
18.0
 40
18.0
 40
18.0
 40
19.0
 40
19.0
 40
19.0
 40
20.0
 40
20.0
 40
20.0
 40
21.0
 40
21.0
 40
21.0
 40
22.0
 40
22.0
 40
22.0
 40
23.0
 40
23.0
 40
23.0
 40
24.0
 40
24.0
 40
24.0
 40
25.0
 40
25.0
 40
25.0
 40
26.0
 40
26.0
 40
26.0
 40
27.0
 40
27.0
 40
27.0
 40
28.0
 40
28.0
 40
28.0
 40
29.0
 40
29.0
 40
29.0
 40
30.0
 40
30.0
 40
30.0
 40
31.0
 40
31.0
 40
31.0
 40
32.0
 40
32.0
 40
32.0
 40
33.0
 40
33.0
 40
33.0
 40
34.0
 40
34.0
 40
34.0
 40
35.0
 40
35.0
 40
35.0
 40
36.0
 40
36.0
 40
36.0
 40
37.0
 40
37.0
 40
37.0
 40
38.0
 40
38.0
 40
38.0
 40
39.0
 40
39.0
 40
39.0
 40
40.0
 40
40.0
 40
40.0
 40
41.0
 40
41.0
 40
41.0
 40
42.0
 40
42.0
 40
42.0
 40
43.0
 40
43.0
 40
43.0
 40
44.0
 40
44.0
 40
44.0
 40
45.0
 40
45.0
 40
45.0
 40
46.0
 40
46.0
 40
46.0
 40
47.0
 40
47.0
 40
47.0
 40
48.0
 40
48.0
 40
48.0
 40
49.0
 40
49.0
 40
49.0
 40
50.0
 40
50.0
 40
50.0
 40
51.0
 40
51.0
 40
51.0
 40
52.0
 40
52.0
 40
52.0
 40
53.0
 40
53.0
 40
53.0
 40
54.0
 40
54.0
 40
54.0
 40
55.0
 40
55.0
 40
55.0
 40
55.0
 10
16.57039299151305
 20
-20.26822571696472
 30
0.0
 10
16.57039299151305
 20
-20.26822571696472
 30
0.0
 10
16.5705456584718
 20
-20.26842233013042
 30
0.0
 10
16.5705456584718
 20
-20.26842233013042
 30
0.0
 10
16.5705456584718
 20
-20.26842233013042
 30
0.0
 10
6.31296053095928
 20
-28.23086729970237
 30
0.0
 10
6.31296053095928
 20
-28.23086729970237
 30
0.0
 10
5.524627061992267
 20
-28.85508062435514
 30
0.0
 10
5.10226208532126
 20
-29.83333854536209
 30
0.0
 10
5.188536974101642
 20
-30.83516960004959
 30
0.0
 10
5.188536974101642
 20
-30.83516960004959
 30
0.0
 10
5.932567061707712
 20
-37.06613743805833
 30
0.0
 10
5.932567061707712
 20
-37.06613743805833
 30
0.0
 10
5.93829445335075
 20
-37.11410215577332
 30
0.0
 10
5.963160130973973
 20
-37.15771746693083
 30
0.0
 10
6.001517653469755
 20
-37.18707930659555
 30
0.0
 10
6.001517653469755
 20
-37.18707930659555
 30
0.0
 10
20.99164773256514
 20
-48.66169412261903
 30
0.0
 10
20.99164773256514
 20
-48.66169412261903
 30
0.0
 10
21.27957430049056
 20
-48.88220736046625
 30
0.0
 10
21.63042811450959
 20
-49.00495584136903
 30
0.0
 10
21.99303119610681
 20
-49.01203591949403
 30
0.0
 10
21.99303119610681
 20
-49.01203591949403
 30
0.0
 10
21.99303119610681
 20
-49.01203591949403
 30
0.0
 10
21.99303119610681
 20
-49.01203591949403
 30
0.0
 10
22.28278203703569
 20
-49.01770540734125
 30
0.0
 10
22.56917255352875
 20
-48.94926465213292
 30
0.0
 10
22.82505905526486
 20
-48.81321050716765
 30
0.0
 10
22.82505905526486
 20
-48.81321050716765
 30
0.0
 10
27.15975550708778
 20
-46.50856369727181
 30
0.0
 10
27.15975550708778
 20
-46.50856369727181
 30
0.0
 10
27.32460129159292
 20
-46.42091721289681
 30
0.0
 10
27.42845939163639
 20
-46.2499916486607
 30
0.0
 10
27.42939187319014
 20
-46.06330545074403
 30
0.0
 10
27.43393560148876
 20
-45.1539223127232
 30
0.0
 10
27.30907462601139
 20
-44.13746994727181
 30
0.0
 10
26.97323885127181
 20
-43.03615158789681
 30
0.0
 10
26.90389413343708
 20
-42.80874466296985
 30
0.0
 10
26.85287343845458
 20
-42.57887096854362
 30
0.0
 10
26.74959617844097
 20
-42.37787526139432
 30
0.0
 10
25.13526919776916
 20
-39.23611111111111
 30
0.0
 10
22.35298812061444
 20
-37.31954494280929
 30
0.0
 10
22.35298812061444
 20
-37.31954494280929
 30
0.0
 10
22.28573313824472
 20
-37.27741512062458
 30
0.0
 10
22.19729434886791
 20
-37.28134659139126
 30
0.0
 10
22.12717100425639
 20
-37.31850666554833
 30
0.0
 10
22.09594335143695
 20
-37.33505496199597
 30
0.0
 10
22.05947578505167
 20
-37.34301848583209
 30
0.0
 10
22.02085288034819
 20
-37.33923180514459
 30
0.0
 10
21.934047092785
 20
-37.33072116095915
 30
0.0
 10
21.86316235648028
 20
-37.26095337464486
 30
0.0
 10
21.85346857739569
 20
-37.17427173607042
 30
0.0
 10
21.84080764127695
 20
-37.06105782031374
 30
0.0
 10
21.92908918432875
 20
-36.96516091949403
 30
0.0
 10
22.0397569990582
 20
-36.96516091949403
 30
0.0
 10
22.09227049764874
 20
-36.96516091949403
 30
0.0
 10
22.13968819677721
 20
-36.98676678098056
 30
0.0
 10
22.17367905713723
 20
-37.02156603017028
 30
0.0
 10
22.23825366363167
 20
-37.08767638451028
 30
0.0
 10
22.3240262962525
 20
-37.12885461394818
 30
0.0
 10
22.41644089753236
 20
-37.12883960920069
 30
0.0
 10
22.41644089753236
 20
-37.12883960920069
 30
0.0
 10
37.56920520335082
 20
-37.12637935511071
 30
0.0
 10
37.56920520335082
 20
-37.12637935511071
 30
0.0
 10
37.66339202691193
 20
-37.12636406261915
 30
0.0
 10
37.75128754998001
 20
-37.08554064056903
 30
0.0
 10
37.81822842104778
 20
-37.01928297877
 30
0.0
 10
37.85526314840278
 20
-36.98262623378362
 30
0.0
 10
37.9074955466168
 20
-36.96132846878847
 30
0.0
 10
37.96469942539139
 20
-36.96573437570499
 30
0.0
 10
38.05771827315235
 20
-36.97289879171154
 30
0.0
 10
38.13279038900221
 20
-37.05048840467667
 30
0.0
 10
38.13713796752098
 20
-37.14368139505973
 30
0.0
 10
38.14215950741153
 20
-37.25132115744971
 30
0.0
 10
38.05637885226403
 20
-37.34016091949403
 30
0.0
 10
37.94984882306001
 20
-37.34016091949403
 30
0.0
 10
37.9195425367779
 20
-37.34016091949403
 30
0.0
 10
37.89094579118096
 20
-37.33295410864876
 30
0.0
 10
37.86564473043818
 20
-37.32016808781347
 30
0.0
 10
37.79121765805596
 20
-37.28255598499069
 30
0.0
 10
37.70258977956306
 20
-37.28650016167598
 30
0.0
 10
37.62802561953152
 20
-37.32383975756223
 30
0.0
 10
37.62802561953152
 20
-37.32383975756223
 30
0.0
 10
34.44950530888028
 20
-39.46354166666666
 30
0.0
 10
33.01636697084639
 20
-43.03615158789681
 30
0.0
 10
32.61348210657916
 20
-44.04048621840376
 30
0.0
 10
32.57145459020403
 20
-45.03132302886903
 30
0.0
 10
32.56081751880654
 20
-45.89803581098709
 30
0.0
 10
32.55756231047321
 20
-46.16317252973709
 30
0.0
 10
32.75932758282556
 20
-46.38596441341765
 30
0.0
 10
33.02341653139334
 20
-46.40972743425097
 30
0.0
 10
33.02341653139334
 20
-46.40972743425097
 30
0.0
 10
39.03461648256514
 20
-46.95071593251487
 30
0.0
 10
39.03461648256514
 20
-46.95071593251487
 30
0.0
 10
39.68862174515195
 20
-47.00956738650792
 30
0.0
 10
40.34220993417112
 20
-46.83358268598709
 30
0.0
 10
40.87823084888459
 20
-46.45428309831347
 30
0.0
 10
40.87823084888459
 20
-46.45428309831347
 30
0.0
 10
53.98204256197651
 20
-37.18949511227154
 30
0.0
 10
53.98204256197651
 20
-37.18949511227154
 30
0.0
 10
54.02352660786765
 20
-37.16016464733512
 30
0.0
 10
54.05064370297014
 20
-37.11463315192137
 30
0.0
 10
54.05667230516597
 20
-37.0641865644011
 30
0.0
 10
54.05667230516597
 20
-37.0641865644011
 30
0.0
 10
54.80106884801653
 20
-30.83516960004959
 30
0.0
 10
54.80106884801653
 20
-30.83516960004959
 30
0.0
 10
54.88734543221792
 20
-29.83333854536209
 30
0.0
 10
54.46498215096792
 20
-28.85508062435514
 30
0.0
 10
53.67664529115889
 20
-28.23086729970237
 30
0.0
 10
53.67664529115889
 20
-28.23086729970237
 30
0.0
 10
43.41906141823334
 20
-20.26842330400292
 30
0.0
 10
43.41906141823334
 20
-20.26842330400292
 30
0.0
 10
43.41906141823334
 20
-20.26842330400292
 30
0.0
 10
43.41921487542443
 20
-20.26822571636208
 30
0.0
 10
43.41921487542443
 20
-20.26822571636208
 30
0.0
 10
43.41921487542443
 20
-20.26822571636208
 30
0.0
 10
39.56733951947388
 20
-17.59560919159945
 30
0.0
 10
39.56733951947388
 20
-17.59560919159945
 30
0.0
 10
39.39233520755263
 20
-17.45830909581625
 30
0.0
 10
39.27990058329222
 20
-17.24488354987847
 30
0.0
 10
39.27990058329222
 20
-17.0051974903857
 30
0.0
 10
39.27990058329222
 20
-16.75305975428375
 30
0.0
 10
39.40432058986249
 20
-16.52998186776583
 30
0.0
 10
39.59511350777888
 20
-16.39401092605597
 30
0.0
 10
39.59511350777888
 20
-16.39401092605597
 30
0.0
 10
43.59247710302431
 20
-13.93227492132833
 30
0.0
 10
43.59247710302431
 20
-13.93227492132833
 30
0.0
 10
43.59247710302431
 20
-13.93227492132833
 30
0.0
 10
43.59247707870569
 20
-13.93227493815097
 30
0.0
 10
43.59247707870569
 20
-13.93227493815097
 30
0.0
 10
43.59247707870569
 20
-13.93227493815097
 30
0.0
 10
57.70143912796442
 20
-4.172273549702342
 30
0.0
 10
57.70143912796442
 20
-4.172273549702342
 30
0.0
 10
58.33142366572484
 20
-3.732210073139842
 30
0.0
 10
58.08947352466581
 20
-2.747807946403731
 30
0.0
 10
57.32737500036026
 20
-2.649120880431509
 30
0.0
 10
46.62494173213111
 20
-1.26328374935512
 30
0.0
 10
37.44961485496098
 20
-1.022289825744009
 30
0.0
 10
32.95233431025612
 20
-1.001144534945398
 30
0.0
 10
32.95233431025612
 20
-1.001144534945398
 30
0.0
 10
27.03727490270403
 20
-1.001144534945398
 30
0.0
 10
27.03727490270403
 20
-1.001144534945398
 30
0.0
 10
22.53999096715722
 20
-1.022289825744009
 30
0.0
 10
13.36466239456605
 20
-1.26328374935512
 30
0.0
 10
2.662230821757892
 20
-2.649120880431509
 30
0.0
 10
1.900135688294351
 20
-2.747807946403731
 30
0.0
 10
1.658185547235323
 20
-3.732210073139842
 30
0.0
 10
2.288164998732718
 20
-4.172273549702342
 30
0.0
 10
2.288164998732718
 20
-4.172273549702342
 30
0.0
 10
16.39713087905361
 20
-13.93227482200902
 30
0.0
 10
16.39713087905361
 20
-13.93227482200902
 30
0.0
 10
16.39713087905361
 20
-13.93227482200902
 30
0.0
 10
16.39713076362861
 20
-13.93227492193889
 30
0.0
 10
16.39713076362861
 20
-13.93227492193889
 30
0.0
 10
16.39713076362861
 20
-13.93227492193889
 30
0.0
 10
20.39449435898458
 20
-16.39401092648709
 30
0.0
 10
20.39449435898458
 20
-16.39401092648709
 30
0.0
 10
20.58528727690708
 20
-16.52998186818834
 30
0.0
 10
20.70970728348735
 20
-16.75305975470069
 30
0.0
 10
20.70970728349875
 20
-17.00519749080264
 30
0.0
 10
20.70970728350943
 20
-17.24488355029527
 30
0.0
 10
20.5972726592586
 20
-17.45830909623805
 30
0.0
 10
20.42226834734347
 20
-17.59560919202916
 30
0.0
 10
20.42226834734347
 20
-17.59560919202916
 30
0.0
 10
16.57039299151305
 20
-20.26822571696472
 30
0.0
 10
16.57039299151305
 20
-20.26822571696472
 30
0.0
  0
SPLINE
  5
53
330
1F
100
AcDbEntity
  8
Layer 1
 62
     1
370
     9
100
AcDbSpline
210
0.0
220
0.0
230
1.0
 70
    11
 71
     3
 72
    17
 73
    13
 74
     0
 42
0.0000000001
 43
0.0000000001
 12
1.0
 22
0.0
 32
0.0
 13
1.0
 23
0.0
 33
0.0
 40
0.0
 40
0.0
 40
0.0
 40
0.0
 40
1.0
 40
1.0
 40
1.0
 40
2.0
 40
2.0
 40
2.0
 40
3.0
 40
3.0
 40
3.0
 40
4.0
 40
4.0
 40
4.0
 40
4.0
 10
40.80009962001903
 20
-32.12416545686875
 30
0.0
 10
40.80009962001903
 20
-32.37683572990222
 30
0.0
 10
40.59526989305237
 20
-32.5816654568686
 30
0.0
 10
40.34259962001889
 20
-32.5816654568686
 30
0.0
 10
40.08992934698527
 20
-32.5816654568686
 30
0.0
 10
39.88509962001888
 20
-32.37683572990222
 30
0.0
 10
39.88509962001888
 20
-32.12416545686875
 30
0.0
 10
39.88509962001888
 20
-31.87149518383515
 30
0.0
 10
40.08992934698527
 20
-31.66666545686861
 30
0.0
 10
40.34259962001889
 20
-31.66666545686861
 30
0.0
 10
40.59526989305237
 20
-31.66666545686861
 30
0.0
 10
40.80009962001903
 20
-31.87149518383515
 30
0.0
 10
40.80009962001903
 20
-32.12416545686875
 30
0.0
  0
SPLINE
  5
54
330
1F
100
AcDbEntity
  8
Layer 1
 62
     1
370
     9
100
AcDbSpline
210
0.0
220
0.0
230
1.0
 70
    11
 71
     3
 72
    17
 73
    13
 74
     0
 42
0.0000000001
 43
0.0000000001
 12
1.0
 22
0.0
 32
0.0
 13
1.0
 23
0.0
 33
0.0
 40
0.0
 40
0.0
 40
0.0
 40
0.0
 40
1.0
 40
1.0
 40
1.0
 40
2.0
 40
2.0
 40
2.0
 40
3.0
 40
3.0
 40
3.0
 40
4.0
 40
4.0
 40
4.0
 40
4.0
 10
18.66089535786792
 20
-24.361944443915
 30
0.0
 10
18.66089535786792
 20
-25.05230038116514
 30
0.0
 10
18.45606563090138
 20
-25.61194444391501
 30
0.0
 10
18.20339535786791
 20
-25.61194444391501
 30
0.0
 10
17.95072508483444
 20
-25.61194444391501
 30
0.0
 10
17.74589535786792
 20
-25.05230038116487
 30
0.0
 10
17.74589535786792
 20
-24.36194444391486
 30
0.0
 10
17.74589535786806
 20
-23.671588506665
 30
0.0
 10
17.95072508483444
 20
-23.111944443915
 30
0.0
 10
18.20339535786791
 20
-23.11194444391486
 30
0.0
 10
18.45606563090138
 20
-23.111944443915
 30
0.0
 10
18.66089535786792
 20
-23.671588506665
 30
0.0
 10
18.66089535786792
 20
-24.361944443915
 30
0.0
  0
SPLINE
  5
55
330
1F
100
AcDbEntity
  8
Layer 1
 62
     1
370
     9
100
AcDbSpline
210
0.0
220
0.0
230
1.0
 70
    11
 71
     3
 72
    17
 73
    13
 74
     0
 42
0.0000000001
 43
0.0000000001
 12
1.0
 22
0.0
 32
0.0
 13
1.0
 23
0.0
 33
0.0
 40
0.0
 40
0.0
 40
0.0
 40
0.0
 40
1.0
 40
1.0
 40
1.0
 40
2.0
 40
2.0
 40
2.0
 40
3.0
 40
3.0
 40
3.0
 40
4.0
 40
4.0
 40
4.0
 40
4.0
 10
19.18950824640861
 20
-32.12416545638361
 30
0.0
 10
19.18950824639722
 20
-32.37683572941707
 30
0.0
 10
19.39433797335458
 20
-32.58166545639263
 30
0.0
 10
19.64700824638819
 20
-32.58166545640402
 30
0.0
 10
19.89967851942166
 20
-32.58166545641542
 30
0.0
 10
20.10450824639736
 20
-32.37683572945818
 30
0.0
 10
20.10450824640875
 20
-32.12416545642473
 30
0.0
 10
20.10450824642001
 20
-31.87149518339111
 30
0.0
 10
19.89967851946278
 20
-31.66666545641541
 30
0.0
 10
19.64700824642931
 20
-31.66666545640404
 30
0.0
 10
19.3943379733957
 20
-31.66666545639264
 30
0.0
 10
19.18950824641987
 20
-31.87149518335001
 30
0.0
 10
19.18950824640861
 20
-32.12416545638361
 30
0.0
  0
SPLINE
  5
56
330
1F
100
AcDbEntity
  8
Layer 1
 62
     1
370
     9
100
AcDbSpline
210
0.0
220
0.0
230
1.0
 70
    11
 71
     3
 72
    17
 73
    13
 74
     0
 42
0.0000000001
 43
0.0000000001
 12
1.0
 22
0.0
 32
0.0
 13
1.0
 23
0.0
 33
0.0
 40
0.0
 40
0.0
 40
0.0
 40
0.0
 40
1.0
 40
1.0
 40
1.0
 40
2.0
 40
2.0
 40
2.0
 40
3.0
 40
3.0
 40
3.0
 40
4.0
 40
4.0
 40
4.0
 40
4.0
 10
45.29022894965278
 20
-32.06747775607639
 30
0.0
 10
43.67049153645833
 20
-32.06747775607639
 30
0.0
 10
42.35272894965278
 20
-30.74971516927083
 30
0.0
 10
42.35272894965278
 20
-29.12997775607639
 30
0.0
 10
42.35272894965278
 20
-27.51024034288194
 30
0.0
 10
43.67049153645833
 20
-26.19247775607639
 30
0.0
 10
45.29022894965278
 20
-26.19247775607639
 30
0.0
 10
46.90996636284722
 20
-26.19247775607639
 30
0.0
 10
48.22772894965278
 20
-27.51024034288194
 30
0.0
 10
48.22772894965278
 20
-29.12997775607639
 30
0.0
 10
48.22772894965278
 20
-30.74971516927083
 30
0.0
 10
46.90996636284722
 20
-32.06747775607639
 30
0.0
 10
45.29022894965278
 20
-32.06747775607639
 30
0.0
  0
SPLINE
  5
57
330
1F
100
AcDbEntity
  8
Layer 1
 62
     1
370
     9
100
AcDbSpline
210
0.0
220
0.0
230
1.0
 70
    11
 71
     3
 72
    17
 73
    13
 74
     0
 42
0.0000000001
 43
0.0000000001
 12
1.0
 22
0.0
 32
0.0
 13
1.0
 23
0.0
 33
0.0
 40
0.0
 40
0.0
 40
0.0
 40
0.0
 40
1.0
 40
1.0
 40
1.0
 40
2.0
 40
2.0
 40
2.0
 40
3.0
 40
3.0
 40
3.0
 40
4.0
 40
4.0
 40
4.0
 40
4.0
 10
14.69937472873264
 20
-32.06747775607639
 30
0.0
 10
13.07963053385417
 20
-32.06747775607639
 30
0.0
 10
11.76187472873264
 20
-30.74971516927083
 30
0.0
 10
11.76187472873264
 20
-29.12997775607639
 30
0.0
 10
11.76187472873264
 20
-27.51024034288194
 30
0.0
 10
13.07963053385417
 20
-26.19247775607639
 30
0.0
 10
14.69937472873264
 20
-26.19247775607639
 30
0.0
 10
16.31911892361111
 20
-26.19247775607639
 30
0.0
 10
17.63687472873264
 20
-27.51024034288194
 30
0.0
 10
17.63687472873264
 20
-29.12997775607639
 30
0.0
 10
17.63687472873264
 20
-30.74971516927083
 30
0.0
 10
16.31911892361111
 20
-32.06747775607639
 30
0.0
 10
14.69937472873264
 20
-32.06747775607639
 30
0.0
  0
SPLINE
  5
58
330
1F
100
AcDbEntity
  8
Layer 1
 62
     1
370
     9
100
AcDbSpline
210
0.0
220
0.0
230
1.0
 70
    11
 71
     3
 72
    17
 73
    13
 74
     0
 42
0.0000000001
 43
0.0000000001
 12
1.0
 22
0.0
 32
0.0
 13
1.0
 23
0.0
 33
0.0
 40
0.0
 40
0.0
 40
0.0
 40
0.0
 40
1.0
 40
1.0
 40
1.0
 40
2.0
 40
2.0
 40
2.0
 40
3.0
 40
3.0
 40
3.0
 40
4.0
 40
4.0
 40
4.0
 40
4.0
 10
2.864404975633786
 20
-3.476717117274676
 30
0.0
 10
2.864404975633786
 20
-3.526560815944119
 30
0.0
 10
2.823998674303235
 20
-3.56696711727467
 30
0.0
 10
2.774154975633792
 20
-3.56696711727467
 30
0.0
 10
2.724311276964348
 20
-3.56696711727467
 30
0.0
 10
2.683904975633797
 20
-3.526560815944119
 30
0.0
 10
2.683904975633797
 20
-3.476717117274676
 30
0.0
 10
2.683904975633797
 20
-3.426873418605232
 30
0.0
 10
2.724311276964348
 20
-3.386467117274681
 30
0.0
 10
2.774154975633792
 20
-3.386467117274681
 30
0.0
 10
2.823998674303235
 20
-3.386467117274681
 30
0.0
 10
2.864404975633786
 20
-3.426873418605232
 30
0.0
 10
2.864404975633786
 20
-3.476717117274676
 30
0.0
  0
SPLINE
  5
59
330
1F
100
AcDbEntity
  8
Layer 1
 62
     1
370
     9
100
AcDbSpline
210
0.0
220
0.0
230
1.0
 70
    11
 71
     3
 72
    17
 73
    13
 74
     0
 42
0.0000000001
 43
0.0000000001
 12
1.0
 22
0.0
 32
0.0
 13
1.0
 23
0.0
 33
0.0
 40
0.0
 40
0.0
 40
0.0
 40
0.0
 40
1.0
 40
1.0
 40
1.0
 40
2.0
 40
2.0
 40
2.0
 40
3.0
 40
3.0
 40
3.0
 40
4.0
 40
4.0
 40
4.0
 40
4.0
 10
8.584238485422777
 20
-3.856516292561031
 30
0.0
 10
8.584238485422777
 20
-3.906359991230475
 30
0.0
 10
8.543832184092228
 20
-3.946766292561026
 30
0.0
 10
8.493988485422783
 20
-3.946766292561026
 30
0.0
 10
8.444144786753352
 20
-3.946766292561026
 30
0.0
 10
8.403738485422789
 20
-3.906359991230475
 30
0.0
 10
8.403738485422789
 20
-3.856516292561031
 30
0.0
 10
8.403738485422789
 20
-3.806672593891587
 30
0.0
 10
8.444144786753352
 20
-3.766266292561037
 30
0.0
 10
8.493988485422783
 20
-3.766266292561037
 30
0.0
 10
8.543832184092228
 20
-3.766266292561037
 30
0.0
 10
8.584238485422777
 20
-3.806672593891587
 30
0.0
 10
8.584238485422777
 20
-3.856516292561031
 30
0.0
  0
SPLINE
  5
5A
330
1F
100
AcDbEntity
  8
Layer 1
 62
     1
370
     9
100
AcDbSpline
210
0.0
220
0.0
230
1.0
 70
    11
 71
     3
 72
    17
 73
    13
 74
     0
 42
0.0000000001
 43
0.0000000001
 12
1.0
 22
0.0
 32
0.0
 13
1.0
 23
0.0
 33
0.0
 40
0.0
 40
0.0
 40
0.0
 40
0.0
 40
1.0
 40
1.0
 40
1.0
 40
2.0
 40
2.0
 40
2.0
 40
3.0
 40
3.0
 40
3.0
 40
4.0
 40
4.0
 40
4.0
 40
4.0
 10
11.94346171241956
 20
-8.207292898571065
 30
0.0
 10
11.94346171241956
 20
-8.257136597247229
 30
0.0
 10
11.90305541108357
 20
-8.297542898583211
 30
0.0
 10
11.8532117124074
 20
-8.297542898583211
 30
0.0
 10
11.80336801373124
 20
-8.297542898583211
 30
0.0
 10
11.76296171239525
 20
-8.257136597247229
 30
0.0
 10
11.76296171239525
 20
-8.207292898571065
 30
0.0
 10
11.76296171239525
 20
-8.157449199894902
 30
0.0
 10
11.80336801373124
 20
-8.11704289855892
 30
0.0
 10
11.8532117124074
 20
-8.11704289855892
 30
0.0
 10
11.90305541108357
 20
-8.11704289855892
 30
0.0
 10
11.94346171241956
 20
-8.157449199894902
 30
0.0
 10
11.94346171241956
 20
-8.207292898571065
 30
0.0
  0
SPLINE
  5
5B
330
1F
100
AcDbEntity
  8
Layer 1
 62
     1
370
     9
100
AcDbSpline
210
0.0
220
0.0
230
1.0
 70
    11
 71
     3
 72
    17
 73
    13
 74
     0
 42
0.0000000001
 43
0.0000000001
 12
1.0
 22
0.0
 32
0.0
 13
1.0
 23
0.0
 33
0.0
 40
0.0
 40
0.0
 40
0.0
 40
0.0
 40
1.0
 40
1.0
 40
1.0
 40
2.0
 40
2.0
 40
2.0
 40
3.0
 40
3.0
 40
3.0
 40
4.0
 40
4.0
 40
4.0
 40
4.0
 10
15.33147405159125
 20
-12.53621993777137
 30
0.0
 10
15.33147405159125
 20
-12.58606363644084
 30
0.0
 10
15.29106775026069
 20
-12.62646993777139
 30
0.0
 10
15.24122405159125
 20
-12.62646993777139
 30
0.0
 10
15.19138035292181
 20
-12.62646993777139
 30
0.0
 10
15.15097405159124
 20
-12.58606363644084
 30
0.0
 10
15.15097405159124
 20
-12.53621993777137
 30
0.0
 10
15.15097405159124
 20
-12.48637623910191
 30
0.0
 10
15.19138035292181
 20
-12.44596993777135
 30
0.0
 10
15.24122405159125
 20
-12.44596993777135
 30
0.0
 10
15.29106775026069
 20
-12.44596993777135
 30
0.0
 10
15.33147405159125
 20
-12.48637623910191
 30
0.0
 10
15.33147405159125
 20
-12.53621993777137
 30
0.0
  0
SPLINE
  5
5C
330
1F
100
AcDbEntity
  8
Layer 1
 62
     1
370
     9
100
AcDbSpline
210
0.0
220
0.0
230
1.0
 70
    11
 71
     3
 72
    17
 73
    13
 74
     0
 42
0.0000000001
 43
0.0000000001
 12
1.0
 22
0.0
 32
0.0
 13
1.0
 23
0.0
 33
0.0
 40
0.0
 40
0.0
 40
0.0
 40
0.0
 40
1.0
 40
1.0
 40
1.0
 40
2.0
 40
2.0
 40
2.0
 40
3.0
 40
3.0
 40
3.0
 40
4.0
 40
4.0
 40
4.0
 40
4.0
 10
15.59462537934486
 20
-21.73008690789056
 30
0.0
 10
15.59462537934486
 20
-21.77993060656
 30
0.0
 10
15.55421907801431
 20
-21.82033690789055
 30
0.0
 10
15.50437537934486
 20
-21.82033690789055
 30
0.0
 10
15.45453168067542
 20
-21.82033690789055
 30
0.0
 10
15.41412537934486
 20
-21.77993060656
 30
0.0
 10
15.41412537934486
 20
-21.73008690789056
 30
0.0
 10
15.41412537934486
 20
-21.68024320922111
 30
0.0
 10
15.45453168067542
 20
-21.63983690789055
 30
0.0
 10
15.50437537934486
 20
-21.63983690789055
 30
0.0
 10
15.55421907801431
 20
-21.63983690789055
 30
0.0
 10
15.59462537934486
 20
-21.68024320922111
 30
0.0
 10
15.59462537934486
 20
-21.73008690789056
 30
0.0
  0
SPLINE
  5
5D
330
1F
100
AcDbEntity
  8
Layer 1
 62
     1
370
     9
100
AcDbSpline
210
0.0
220
0.0
230
1.0
 70
    11
 71
     3
 72
    17
 73
    13
 74
     0
 42
0.0000000001
 43
0.0000000001
 12
1.0
 22
0.0
 32
0.0
 13
1.0
 23
0.0
 33
0.0
 40
0.0
 40
0.0
 40
0.0
 40
0.0
 40
1.0
 40
1.0
 40
1.0
 40
2.0
 40
2.0
 40
2.0
 40
3.0
 40
3.0
 40
3.0
 40
4.0
 40
4.0
 40
4.0
 40
4.0
 10
11.26257904714656
 20
-25.11410988311834
 30
0.0
 10
11.26257904714656
 20
-25.16395358178763
 30
0.0
 10
11.22217274581602
 20
-25.20435988311818
 30
0.0
 10
11.1723290471466
 20
-25.20435988311818
 30
0.0
 10
11.12248534847721
 20
-25.20435988311818
 30
0.0
 10
11.0820790471467
 20
-25.16395358178763
 30
0.0
 10
11.0820790471467
 20
-25.11410988311834
 30
0.0
 10
11.0820790471467
 20
-25.0642661844489
 30
0.0
 10
11.12248534847721
 20
-25.02385988311832
 30
0.0
 10
11.1723290471466
 20
-25.02385988311832
 30
0.0
 10
11.22217274581602
 20
-25.02385988311832
 30
0.0
 10
11.26257904714656
 20
-25.0642661844489
 30
0.0
 10
11.26257904714656
 20
-25.11410988311834
 30
0.0
  0
SPLINE
  5
5E
330
1F
100
AcDbEntity
  8
Layer 1
 62
     1
370
     9
100
AcDbSpline
210
0.0
220
0.0
230
1.0
 70
    11
 71
     3
 72
    17
 73
    13
 74
     0
 42
0.0000000001
 43
0.0000000001
 12
1.0
 22
0.0
 32
0.0
 13
1.0
 23
0.0
 33
0.0
 40
0.0
 40
0.0
 40
0.0
 40
0.0
 40
1.0
 40
1.0
 40
1.0
 40
2.0
 40
2.0
 40
2.0
 40
3.0
 40
3.0
 40
3.0
 40
4.0
 40
4.0
 40
4.0
 40
4.0
 10
6.908709678729893
 20
-28.46932362994264
 30
0.0
 10
6.908709678729893
 20
-28.51916732861208
 30
0.0
 10
6.868303377399343
 20
-28.55957362994263
 30
0.0
 10
6.818459678729899
 20
-28.55957362994263
 30
0.0
 10
6.768615980060455
 20
-28.55957362994263
 30
0.0
 10
6.728209678729904
 20
-28.51916732861208
 30
0.0
 10
6.728209678729904
 20
-28.46932362994264
 30
0.0
 10
6.728209678729904
 20
-28.41947993127319
 30
0.0
 10
6.768615980060455
 20
-28.37907362994264
 30
0.0
 10
6.818459678729899
 20
-28.37907362994264
 30
0.0
 10
6.868303377399343
 20
-28.37907362994264
 30
0.0
 10
6.908709678729893
 20
-28.41947993127319
 30
0.0
 10
6.908709678729893
 20
-28.46932362994264
 30
0.0
  0
SPLINE
  5
5F
330
1F
100
AcDbEntity
  8
Layer 1
 62
     1
370
     9
100
AcDbSpline
210
0.0
220
0.0
230
1.0
 70
    11
 71
     3
 72
    17
 73
    13
 74
     0
 42
0.0000000001
 43
0.0000000001
 12
1.0
 22
0.0
 32
0.0
 13
1.0
 23
0.0
 33
0.0
 40
0.0
 40
0.0
 40
0.0
 40
0.0
 40
1.0
 40
1.0
 40
1.0
 40
2.0
 40
2.0
 40
2.0
 40
3.0
 40
3.0
 40
3.0
 40
4.0
 40
4.0
 40
4.0
 40
4.0
 10
6.523641397093241
 20
-34.18880483121693
 30
0.0
 10
6.523641397093241
 20
-34.23864852988638
 30
0.0
 10
6.483235095762691
 20
-34.27905483121695
 30
0.0
 10
6.433391397093247
 20
-34.27905483121695
 30
0.0
 10
6.383547698423803
 20
-34.27905483121695
 30
0.0
 10
6.343141397093253
 20
-34.23864852988638
 30
0.0
 10
6.343141397093253
 20
-34.18880483121693
 30
0.0
 10
6.343141397093253
 20
-34.13896113254764
 30
0.0
 10
6.383547698423803
 20
-34.09855483121709
 30
0.0
 10
6.433391397093247
 20
-34.09855483121709
 30
0.0
 10
6.483235095762691
 20
-34.09855483121709
 30
0.0
 10
6.523641397093241
 20
-34.13896113254764
 30
0.0
 10
6.523641397093241
 20
-34.18880483121693
 30
0.0
  0
SPLINE
  5
60
330
1F
100
AcDbEntity
  8
Layer 1
 62
     1
370
     9
100
AcDbSpline
210
0.0
220
0.0
230
1.0
 70
    11
 71
     3
 72
    17
 73
    13
 74
     0
 42
0.0000000001
 43
0.0000000001
 12
1.0
 22
0.0
 32
0.0
 13
1.0
 23
0.0
 33
0.0
 40
0.0
 40
0.0
 40
0.0
 40
0.0
 40
1.0
 40
1.0
 40
1.0
 40
2.0
 40
2.0
 40
2.0
 40
3.0
 40
3.0
 40
3.0
 40
4.0
 40
4.0
 40
4.0
 40
4.0
 10
57.12520289149708
 20
-3.476717118492742
 30
0.0
 10
57.12520289149471
 20
-3.526560817162185
 30
0.0
 10
57.16560919282347
 20
-3.566967118494555
 30
0.0
 10
57.21545289149291
 20
-3.566967118496791
 30
0.0
 10
57.26529659016235
 20
-3.566967118499027
 30
0.0
 10
57.30570289149472
 20
-3.526560817170295
 30
0.0
 10
57.30570289149694
 20
-3.476717118500851
 30
0.0
 10
57.30570289149929
 20
-3.426873419831407
 30
0.0
 10
57.26529659017054
 20
-3.386467118499038
 30
0.0
 10
57.21545289150112
 20
-3.386467118496802
 30
0.0
 10
57.16560919283165
 20
-3.386467118494566
 30
0.0
 10
57.12520289149931
 20
-3.426873419823298
 30
0.0
 10
57.12520289149708
 20
-3.476717118492742
 30
0.0
  0
SPLINE
  5
61
330
1F
100
AcDbEntity
  8
Layer 1
 62
     1
370
     9
100
AcDbSpline
210
0.0
220
0.0
230
1.0
 70
    11
 71
     3
 72
    17
 73
    13
 74
     0
 42
0.0000000001
 43
0.0000000001
 12
1.0
 22
0.0
 32
0.0
 13
1.0
 23
0.0
 33
0.0
 40
0.0
 40
0.0
 40
0.0
 40
0.0
 40
1.0
 40
1.0
 40
1.0
 40
2.0
 40
2.0
 40
2.0
 40
3.0
 40
3.0
 40
3.0
 40
4.0
 40
4.0
 40
4.0
 40
4.0
 10
51.40536938169096
 20
-3.856516293522291
 30
0.0
 10
51.40536938168874
 20
-3.906359992191735
 30
0.0
 10
51.44577568301749
 20
-3.946766293524105
 30
0.0
 10
51.49561938168694
 20
-3.946766293526353
 30
0.0
 10
51.54546308035638
 20
-3.946766293528576
 30
0.0
 10
51.58586938168875
 20
-3.906359992199845
 30
0.0
 10
51.58586938169098
 20
-3.856516293530401
 30
0.0
 10
51.5858693816932
 20
-3.806672594860957
 30
0.0
 10
51.54546308036444
 20
-3.766266293528588
 30
0.0
 10
51.495619381695
 20
-3.766266293526352
 30
0.0
 10
51.44577568302555
 20
-3.766266293524116
 30
0.0
 10
51.40536938169318
 20
-3.806672594852848
 30
0.0
 10
51.40536938169096
 20
-3.856516293522291
 30
0.0
  0
SPLINE
  5
62
330
1F
100
AcDbEntity
  8
Layer 1
 62
     1
370
     9
100
AcDbSpline
210
0.0
220
0.0
230
1.0
 70
    11
 71
     3
 72
    17
 73
    13
 74
     0
 42
0.0000000001
 43
0.0000000001
 12
1.0
 22
0.0
 32
0.0
 13
1.0
 23
0.0
 33
0.0
 40
0.0
 40
0.0
 40
0.0
 40
0.0
 40
1.0
 40
1.0
 40
1.0
 40
2.0
 40
2.0
 40
2.0
 40
3.0
 40
3.0
 40
3.0
 40
4.0
 40
4.0
 40
4.0
 40
4.0
 10
48.04614615449888
 20
-8.207292899381514
 30
0.0
 10
48.04614615449665
 20
-8.257136598057677
 30
0.0
 10
48.08655245583082
 20
-8.297542899395491
 30
0.0
 10
48.13639615450695
 20
-8.297542899397728
 30
0.0
 10
48.18623985318305
 20
-8.297542899399962
 30
0.0
 10
48.22664615452097
 20
-8.257136598065774
 30
0.0
 10
48.22664615452319
 20
-8.20729289938961
 30
0.0
 10
48.22664615452542
 20
-8.157449200713447
 30
0.0
 10
48.18623985319125
 20
-8.117042899375646
 30
0.0
 10
48.13639615451499
 20
-8.117042899373422
 30
0.0
 10
48.08655245583888
 20
-8.1170428993712
 30
0.0
 10
48.0461461545011
 20
-8.157449200705349
 30
0.0
 10
48.04614615449888
 20
-8.207292899381514
 30
0.0
  0
SPLINE
  5
63
330
1F
100
AcDbEntity
  8
Layer 1
 62
     1
370
     9
100
AcDbSpline
210
0.0
220
0.0
230
1.0
 70
    11
 71
     3
 72
    17
 73
    13
 74
     0
 42
0.0000000001
 43
0.0000000001
 12
1.0
 22
0.0
 32
0.0
 13
1.0
 23
0.0
 33
0.0
 40
0.0
 40
0.0
 40
0.0
 40
0.0
 40
1.0
 40
1.0
 40
1.0
 40
2.0
 40
2.0
 40
2.0
 40
3.0
 40
3.0
 40
3.0
 40
4.0
 40
4.0
 40
4.0
 40
4.0
 10
44.65813381513276
 20
-12.5362199384297
 30
0.0
 10
44.65813381513054
 20
-12.58606363709916
 30
0.0
 10
44.6985401164593
 20
-12.62646993843154
 30
0.0
 10
44.74838381512874
 20
-12.62646993843378
 30
0.0
 10
44.79822751379818
 20
-12.62646993843602
 30
0.0
 10
44.83863381513056
 20
-12.58606363710727
 30
0.0
 10
44.83863381513277
 20
-12.53621993843781
 30
0.0
 10
44.83863381513513
 20
-12.48637623976836
 30
0.0
 10
44.7982275138064
 20
-12.44596993843598
 30
0.0
 10
44.7483838151368
 20
-12.44596993843374
 30
0.0
 10
44.69854011646736
 20
-12.4459699384315
 30
0.0
 10
44.65813381513499
 20
-12.48637623976025
 30
0.0
 10
44.65813381513276
 20
-12.5362199384297
 30
0.0
  0
SPLINE
  5
64
330
1F
100
AcDbEntity
  8
Layer 1
 62
     1
370
     9
100
AcDbSpline
210
0.0
220
0.0
230
1.0
 70
    11
 71
     3
 72
    17
 73
    13
 74
     0
 42
0.0000000001
 43
0.0000000001
 12
1.0
 22
0.0
 32
0.0
 13
1.0
 23
0.0
 33
0.0
 40
0.0
 40
0.0
 40
0.0
 40
0.0
 40
1.0
 40
1.0
 40
1.0
 40
2.0
 40
2.0
 40
2.0
 40
3.0
 40
3.0
 40
3.0
 40
4.0
 40
4.0
 40
4.0
 40
4.0
 10
44.39498248696638
 20
-21.73008690853708
 30
0.0
 10
44.39498248696418
 20
-21.77993060720653
 30
0.0
 10
44.43538878829291
 20
-21.82033690853889
 30
0.0
 10
44.48523248696235
 20
-21.8203369085411
 30
0.0
 10
44.5350761856318
 20
-21.82033690854333
 30
0.0
 10
44.57548248696417
 20
-21.77993060721458
 30
0.0
 10
44.57548248696639
 20
-21.73008690854514
 30
0.0
 10
44.57548248696862
 20
-21.6802432098757
 30
0.0
 10
44.53507618563986
 20
-21.63983690854333
 30
0.0
 10
44.48523248697041
 20
-21.6398369085411
 30
0.0
 10
44.43538878830097
 20
-21.63983690853888
 30
0.0
 10
44.3949824869686
 20
-21.68024320986764
 30
0.0
 10
44.39498248696638
 20
-21.73008690853708
 30
0.0
  0
SPLINE
  5
65
330
1F
100
AcDbEntity
  8
Layer 1
 62
     1
370
     9
100
AcDbSpline
210
0.0
220
0.0
230
1.0
 70
    11
 71
     3
 72
    17
 73
    13
 74
     0
 42
0.0000000001
 43
0.0000000001
 12
1.0
 22
0.0
 32
0.0
 13
1.0
 23
0.0
 33
0.0
 40
0.0
 40
0.0
 40
0.0
 40
0.0
 40
1.0
 40
1.0
 40
1.0
 40
2.0
 40
2.0
 40
2.0
 40
3.0
 40
3.0
 40
3.0
 40
4.0
 40
4.0
 40
4.0
 40
4.0
 10
48.72702881901278
 20
-25.11410988395929
 30
0.0
 10
48.72702881901056
 20
-25.16395358262874
 30
0.0
 10
48.76743512033931
 20
-25.20435988396098
 30
0.0
 10
48.81727881900861
 20
-25.20435988396321
 30
0.0
 10
48.86712251767805
 20
-25.20435988396543
 30
0.0
 10
48.90752881901042
 20
-25.1639535826368
 30
0.0
 10
48.90752881901264
 20
-25.11410988396736
 30
0.0
 10
48.90752881901486
 20
-25.06426618529806
 30
0.0
 10
48.86712251768626
 20
-25.02385988396569
 30
0.0
 10
48.81727881901679
 20
-25.02385988396347
 30
0.0
 10
48.76743512034737
 20
-25.02385988396125
 30
0.0
 10
48.727028819015
 20
-25.06426618528985
 30
0.0
 10
48.72702881901278
 20
-25.11410988395929
 30
0.0
  0
SPLINE
  5
66
330
1F
100
AcDbEntity
  8
Layer 1
 62
     1
370
     9
100
AcDbSpline
210
0.0
220
0.0
230
1.0
 70
    11
 71
     3
 72
    17
 73
    13
 74
     0
 42
0.0000000001
 43
0.0000000001
 12
1.0
 22
0.0
 32
0.0
 13
1.0
 23
0.0
 33
0.0
 40
0.0
 40
0.0
 40
0.0
 40
0.0
 40
1.0
 40
1.0
 40
1.0
 40
2.0
 40
2.0
 40
2.0
 40
3.0
 40
3.0
 40
3.0
 40
4.0
 40
4.0
 40
4.0
 40
4.0
 10
53.08089818727876
 20
-28.46932363097916
 30
0.0
 10
53.08089818727654
 20
-28.5191673296486
 30
0.0
 10
53.12130448860527
 20
-28.55957363098097
 30
0.0
 10
53.17114818727471
 20
-28.55957363098319
 30
0.0
 10
53.22099188594416
 20
-28.55957363098542
 30
0.0
 10
53.26139818727653
 20
-28.51916732965666
 30
0.0
 10
53.26139818727875
 20
-28.46932363098722
 30
0.0
 10
53.26139818728097
 20
-28.41947993231777
 30
0.0
 10
53.22099188595237
 20
-28.3790736309854
 30
0.0
 10
53.17114818728292
 20
-28.37907363098318
 30
0.0
 10
53.12130448861348
 20
-28.37907363098096
 30
0.0
 10
53.08089818728098
 20
-28.41947993230971
 30
0.0
 10
53.08089818727876
 20
-28.46932363097916
 30
0.0
  0
SPLINE
  5
67
330
1F
100
AcDbEntity
  8
Layer 1
 62
     1
370
     9
100
AcDbSpline
210
0.0
220
0.0
230
1.0
 70
    11
 71
     3
 72
    17
 73
    13
 74
     0
 42
0.0000000001
 43
0.0000000001
 12
1.0
 22
0.0
 32
0.0
 13
1.0
 23
0.0
 33
0.0
 40
0.0
 40
0.0
 40
0.0
 40
0.0
 40
1.0
 40
1.0
 40
1.0
 40
2.0
 40
2.0
 40
2.0
 40
3.0
 40
3.0
 40
3.0
 40
4.0
 40
4.0
 40
4.0
 40
4.0
 10
53.46596646865873
 20
-34.18880483227083
 30
0.0
 10
53.46596646865653
 20
-34.23864853094028
 30
0.0
 10
53.50637276998514
 20
-34.27905483227262
 30
0.0
 10
53.55621646865458
 20
-34.27905483227484
 30
0.0
 10
53.60606016732402
 20
-34.27905483227707
 30
0.0
 10
53.6464664686564
 20
-34.23864853094834
 30
0.0
 10
53.64646646865862
 20
-34.1888048322789
 30
0.0
 10
53.64646646866084
 20
-34.13896113360945
 30
0.0
 10
53.60606016733221
 20
-34.09855483227708
 30
0.0
 10
53.55621646866277
 20
-34.09855483227486
 30
0.0
 10
53.50637276999333
 20
-34.09855483227263
 30
0.0
 10
53.46596646866095
 20
-34.13896113360139
 30
0.0
 10
53.46596646865873
 20
-34.18880483227083
 30
0.0
  0
ENDSEC
  0
SECTION
  2
OBJECTS
  0
DICTIONARY
  5
C
330
0
100
AcDbDictionary
281
     1
  3
ACAD_GROUP
350
D
  3
ACAD_LAYOUT
350
1A
  3
ACAD_MATERIAL
350
3B
  3
ACAD_MLEADERSTYLE
350
6A
  3
ACAD_MLINESTYLE
350
17
  3
ACAD_PLOTSETTINGS
350
19
  3
ACAD_PLOTSTYLENAME
350
E
  3
ACAD_VISUALSTYLE
350
2A
  3
AcDbVariableDictionary
350
68
  0
DICTIONARY
  5
D
102
{ACAD_REACTORS
330
C
102
}
330
C
100
AcDbDictionary
281
     1
  0
DICTIONARY
  5
1A
102
{ACAD_REACTORS
330
C
102
}
330
C
100
AcDbDictionary
281
     1
  3
Layout1
350
1E
  3
Layout2
350
26
  3
Model
350
22
  0
DICTIONARY
  5
3B
102
{ACAD_REACTORS
330
C
102
}
330
C
100
AcDbDictionary
281
     1
  3
ByBlock
350
3D
  3
ByLayer
350
3C
  3
Global
350
3E
  0
DICTIONARY
  5
6A
102
{ACAD_REACTORS
330
C
102
}
330
C
100
AcDbDictionary
281
     1
  0
DICTIONARY
  5
17
102
{ACAD_REACTORS
330
C
102
}
330
C
100
AcDbDictionary
281
     1
  3
Standard
350
18
  0
DICTIONARY
  5
19
102
{ACAD_REACTORS
330
C
102
}
330
C
100
AcDbDictionary
281
     1
  0
ACDBDICTIONARYWDFLT
  5
E
102
{ACAD_REACTORS
330
C
102
}
330
C
100
AcDbDictionary
281
     1
  3
Normal
350
F
100
AcDbDictionaryWithDefault
340
F
  0
DICTIONARY
  5
2A
102
{ACAD_REACTORS
330
C
102
}
330
C
100
AcDbDictionary
281
     1
  3
2dWireframe
350
2F
  3
3D Hidden
350
31
  3
3dWireframe
350
30
  3
Basic
350
32
  3
Brighten
350
36
  3
ColorChange
350
3A
  3
Conceptual
350
34
  3
Dim
350
35
  3
Facepattern
350
39
  3
Flat
350
2B
  3
FlatWithEdges
350
2C
  3
Gouraud
350
2D
  3
GouraudWithEdges
350
2E
  3
Linepattern
350
38
  3
Realistic
350
33
  3
Thicken
350
37
  0
DICTIONARY
  5
68
102
{ACAD_REACTORS
330
C
102
}
330
C
100
AcDbDictionary
281
     1
  3
DIMASSOC
350
6B
  3
HIDETEXT
350
6C
  0
LAYOUT
  5
1E
102
{ACAD_REACTORS
330
1A
102
}
330
1A
100
AcDbPlotSettings
  1

  2
none_device
  4

  6

 40
0.0
 41
0.0
 42
0.0
 43
0.0
 44
0.0
 45
0.0
 46
0.0
 47
0.0
 48
0.0
 49
0.0
140
0.0
141
0.0
142
1.0
143
1.0
 70
   688
 72
     0
 73
     0
 74
     5
  7

 75
    16
147
1.0
148
0.0
149
0.0
100
AcDbLayout
  1
Layout1
 70
     1
 71
     1
 10
0.0
 20
0.0
 11
12.0
 21
9.0
 12
0.0
 22
0.0
 32
0.0
 14
1.000000000000000E+20
 24
1.000000000000000E+20
 34
1.000000000000000E+20
 15
-1.000000000000000E+20
 25
-1.000000000000000E+20
 35
-1.000000000000000E+20
146
0.0
 13
0.0
 23
0.0
 33
0.0
 16
1.0
 26
0.0
 36
0.0
 17
0.0
 27
1.0
 37
0.0
 76
     0
330
1B
  0
LAYOUT
  5
26
102
{ACAD_REACTORS
330
1A
102
}
330
1A
100
AcDbPlotSettings
  1

  2
none_device
  4

  6

 40
0.0
 41
0.0
 42
0.0
 43
0.0
 44
0.0
 45
0.0
 46
0.0
 47
0.0
 48
0.0
 49
0.0
140
0.0
141
0.0
142
1.0
143
1.0
 70
   688
 72
     0
 73
     0
 74
     5
  7

 75
    16
147
1.0
148
0.0
149
0.0
100
AcDbLayout
  1
Layout2
 70
     1
 71
     2
 10
0.0
 20
0.0
 11
0.0
 21
0.0
 12
0.0
 22
0.0
 32
0.0
 14
0.0
 24
0.0
 34
0.0
 15
0.0
 25
0.0
 35
0.0
146
0.0
 13
0.0
 23
0.0
 33
0.0
 16
1.0
 26
0.0
 36
0.0
 17
0.0
 27
1.0
 37
0.0
 76
     0
330
23
  0
LAYOUT
  5
22
102
{ACAD_REACTORS
330
1A
102
}
330
1A
100
AcDbPlotSettings
  1

  2
none_device
  4

  6

 40
0.0
 41
0.0
 42
0.0
 43
0.0
 44
0.0
 45
0.0
 46
0.0
 47
0.0
 48
0.0
 49
0.0
140
0.0
141
0.0
142
1.0
143
1.0
 70
  1712
 72
     0
 73
     0
 74
     0
  7

 75
     0
147
1.0
148
0.0
149
0.0
100
AcDbLayout
  1
Model
 70
     1
 71
     0
 10
0.0
 20
0.0
 11
12.0
 21
9.0
 12
0.0
 22
0.0
 32
0.0
 14
1.000000000000000E+20
 24
1.000000000000000E+20
 34
1.000000000000000E+20
 15
-1.000000000000000E+20
 25
-1.000000000000000E+20
 35
-1.000000000000000E+20
146
0.0
 13
0.0
 23
0.0
 33
0.0
 16
1.0
 26
0.0
 36
0.0
 17
0.0
 27
1.0
 37
0.0
 76
     0
330
1F
331
29
  0
MATERIAL
  5
3D
102
{ACAD_REACTORS
330
3B
102
}
102
{ACAD_XDICTIONARY
360
8F
102
}
330
3B
100
AcDbMaterial
  1
ByBlock
  0
MATERIAL
  5
3C
102
{ACAD_REACTORS
330
3B
102
}
102
{ACAD_XDICTIONARY
360
8D
102
}
330
3B
100
AcDbMaterial
  1
ByLayer
  0
MATERIAL
  5
3E
102
{ACAD_REACTORS
330
3B
102
}
102
{ACAD_XDICTIONARY
360
91
102
}
330
3B
100
AcDbMaterial
  1
Global
  0
MLINESTYLE
  5
18
102
{ACAD_REACTORS
330
17
102
}
330
17
100
AcDbMlineStyle
  2
Standard
 70
     0
  3

 62
   256
 51
90.0
 52
90.0
 71
     2
 49
0.5
 62
   256
  6
BYLAYER
 49
-0.5
 62
   256
  6
BYLAYER
  0
ACDBPLACEHOLDER
  5
F
102
{ACAD_REACTORS
330
E
102
}
330
E
  0
VISUALSTYLE
  5
2F
102
{ACAD_REACTORS
330
2A
102
}
102
{ACAD_XDICTIONARY
360
75
102
}
330
2A
100
AcDbVisualStyle
  2
2dWireframe
 70
     4
 71
     0
 72
     2
 73
     0
 90
        0
 40
-0.6
 41
-30.0
 62
     5
 63
     7
 74
     1
 91
        4
 64
     7
 65
   257
 75
     1
175
     1
 42
1.0
 92
        0
 66
   257
 43
1.0
 76
     1
 77
     6
 78
     2
 67
     7
 79
     5
170
     0
171
     0
290
     0
174
     0
 93
        1
 44
0.0
173
     0
291
     0
 45
0.0
1001
ACAD
1000
AcDbSavedByObjectVersion
1070
     0
  0
VISUALSTYLE
  5
31
102
{ACAD_REACTORS
330
2A
102
}
102
{ACAD_XDICTIONARY
360
79
102
}
330
2A
100
AcDbVisualStyle
  2
3D Hidden
 70
     6
 71
     1
 72
     2
 73
     2
 90
        0
 40
-0.6
 41
-30.0
 62
     5
 63
     7
 74
     2
 91
        2
 64
     7
 65
   257
 75
     2
175
     1
 42
40.0
 92
        0
 66
   257
 43
1.0
 76
     1
 77
     6
 78
     2
 67
     7
 79
     3
170
     0
171
     0
290
     0
174
     0
 93
        1
 44
0.0
173
     0
291
     0
 45
0.0
1001
ACAD
1000
AcDbSavedByObjectVersion
1070
     0
  0
VISUALSTYLE
  5
30
102
{ACAD_REACTORS
330
2A
102
}
102
{ACAD_XDICTIONARY
360
77
102
}
330
2A
100
AcDbVisualStyle
  2
3dWireframe
 70
     5
 71
     0
 72
     2
 73
     0
 90
        0
 40
-0.6
 41
-30.0
 62
     5
 63
     7
 74
     1
 91
        4
 64
     7
 65
   257
 75
     1
175
     1
 42
1.0
 92
        0
 66
   257
 43
1.0
 76
     1
 77
     6
 78
     2
 67
     7
 79
     5
170
     0
171
     0
290
     0
174
     0
 93
        1
 44
0.0
173
     0
291
     0
 45
0.0
1001
ACAD
1000
AcDbSavedByObjectVersion
1070
     0
  0
VISUALSTYLE
  5
32
102
{ACAD_REACTORS
330
2A
102
}
102
{ACAD_XDICTIONARY
360
7B
102
}
330
2A
100
AcDbVisualStyle
  2
Basic
 70
     7
 71
     1
 72
     0
 73
     1
 90
        0
 40
-0.6
 41
-30.0
 62
     5
 63
     7
 74
     0
 91
        4
 64
     7
 65
   257
 75
     1
175
     1
 42
1.0
 92
        8
 66
     7
 43
1.0
 76
     1
 77
     6
 78
     2
 67
     7
 79
     5
170
     0
171
     0
290
     0
174
     0
 93
        1
 44
0.0
173
     0
291
     1
 45
0.0
1001
ACAD
1000
AcDbSavedByObjectVersion
1070
     0
  0
VISUALSTYLE
  5
36
102
{ACAD_REACTORS
330
2A
102
}
102
{ACAD_XDICTIONARY
360
83
102
}
330
2A
100
AcDbVisualStyle
  2
Brighten
 70
    12
 71
     2
 72
     2
 73
     0
 90
        0
 40
-0.6
 41
-30.0
 62
     5
 63
     7
 74
     1
 91
        4
 64
     7
 65
   257
 75
     1
175
     1
 42
1.0
 92
        8
 66
     7
 43
1.0
 76
     1
 77
     6
 78
     2
 67
     7
 79
     5
170
     0
171
     0
290
     0
174
     0
 93
        1
 44
50.0
173
     0
291
     1
 45
0.0
1001
ACAD
1000
AcDbSavedByObjectVersion
1070
     0
  0
VISUALSTYLE
  5
3A
102
{ACAD_REACTORS
330
2A
102
}
102
{ACAD_XDICTIONARY
360
8B
102
}
330
2A
100
AcDbVisualStyle
  2
ColorChange
 70
    16
 71
     2
 72
     2
 73
     3
 90
        0
 40
-0.6
 41
-30.0
 62
     5
 63
     8
 74
     1
 91
        4
 64
     7
 65
   257
 75
     1
175
     1
 42
1.0
 92
        8
 66
     8
 43
1.0
 76
     1
 77
     6
 78
     2
 67
     7
 79
     5
170
     0
171
     0
290
     0
174
     0
 93
        1
 44
0.0
173
     0
291
     1
 45
0.0
1001
ACAD
1000
AcDbSavedByObjectVersion
1070
     0
  0
VISUALSTYLE
  5
34
102
{ACAD_REACTORS
330
2A
102
}
102
{ACAD_XDICTIONARY
360
7F
102
}
330
2A
100
AcDbVisualStyle
  2
Conceptual
 70
     9
 71
     3
 72
     2
 73
     0
 90
        0
 40
-0.6
 41
-30.0
 62
     5
 63
     7
 74
     2
 91
        2
 64
     7
 65
   257
 75
     1
175
     1
 42
40.0
 92
        8
 66
     7
 43
1.0
 76
     1
 77
     6
 78
     2
 67
     7
 79
     3
170
     0
171
     0
290
     0
174
     0
 93
        1
 44
0.0
173
     0
291
     0
 45
0.0
1001
ACAD
1000
AcDbSavedByObjectVersion
1070
     0
  0
VISUALSTYLE
  5
35
102
{ACAD_REACTORS
330
2A
102
}
102
{ACAD_XDICTIONARY
360
81
102
}
330
2A
100
AcDbVisualStyle
  2
Dim
 70
    11
 71
     2
 72
     2
 73
     0
 90
        0
 40
-0.6
 41
-30.0
 62
     5
 63
     7
 74
     1
 91
        4
 64
     7
 65
   257
 75
     1
175
     1
 42
1.0
 92
        8
 66
     7
 43
1.0
 76
     1
 77
     6
 78
     2
 67
     7
 79
     5
170
     0
171
     0
290
     0
174
     0
 93
        1
 44
-50.0
173
     0
291
     1
 45
0.0
1001
ACAD
1000
AcDbSavedByObjectVersion
1070
     0
  0
VISUALSTYLE
  5
39
102
{ACAD_REACTORS
330
2A
102
}
102
{ACAD_XDICTIONARY
360
89
102
}
330
2A
100
AcDbVisualStyle
  2
Facepattern
 70
    15
 71
     2
 72
     2
 73
     0
 90
        0
 40
-0.6
 41
-30.0
 62
     5
 63
     7
 74
     1
 91
        4
 64
     7
 65
   257
 75
     1
175
     1
 42
1.0
 92
        8
 66
     7
 43
1.0
 76
     1
 77
     6
 78
     2
 67
     7
 79
     5
170
     0
171
     0
290
     0
174
     0
 93
        1
 44
0.0
173
     0
291
     1
 45
0.0
1001
ACAD
1000
AcDbSavedByObjectVersion
1070
     0
  0
VISUALSTYLE
  5
2B
102
{ACAD_REACTORS
330
2A
102
}
102
{ACAD_XDICTIONARY
360
6D
102
}
330
2A
100
AcDbVisualStyle
  2
Flat
 70
     0
 71
     2
 72
     1
 73
     1
 90
        2
 40
-0.6
 41
30.0
 62
     5
 63
     7
 74
     0
 91
        4
 64
     7
 65
   257
 75
     1
175
     1
 42
1.0
 92
        8
 66
     7
 43
1.0
 76
     1
 77
     6
 78
     2
 67
     7
 79
     5
170
     0
171
     0
290
     0
174
     0
 93
       13
 44
0.0
173
     0
291
     1
 45
0.0
1001
ACAD
1000
AcDbSavedByObjectVersion
1070
     0
  0
VISUALSTYLE
  5
2C
102
{ACAD_REACTORS
330
2A
102
}
102
{ACAD_XDICTIONARY
360
6F
102
}
330
2A
100
AcDbVisualStyle
  2
FlatWithEdges
 70
     1
 71
     2
 72
     1
 73
     1
 90
        2
 40
-0.6
 41
30.0
 62
     5
 63
     7
 74
     1
 91
        4
 64
     7
 65
   257
 75
     1
175
     1
 42
1.0
 92
        0
 66
   257
 43
1.0
 76
     1
 77
     6
 78
     2
 67
     7
 79
     5
170
     0
171
     0
290
     0
174
     0
 93
       13
 44
0.0
173
     0
291
     1
 45
0.0
1001
ACAD
1000
AcDbSavedByObjectVersion
1070
     0
  0
VISUALSTYLE
  5
2D
102
{ACAD_REACTORS
330
2A
102
}
102
{ACAD_XDICTIONARY
360
71
102
}
330
2A
100
AcDbVisualStyle
  2
Gouraud
 70
     2
 71
     2
 72
     2
 73
     1
 90
        2
 40
-0.6
 41
30.0
 62
     5
 63
     7
 74
     0
 91
        4
 64
     7
 65
   257
 75
     1
175
     1
 42
1.0
 92
        0
 66
     7
 43
1.0
 76
     1
 77
     6
 78
     2
 67
     7
 79
     5
170
     0
171
     0
290
     0
174
     0
 93
       13
 44
0.0
173
     0
291
     1
 45
0.0
1001
ACAD
1000
AcDbSavedByObjectVersion
1070
     0
  0
VISUALSTYLE
  5
2E
102
{ACAD_REACTORS
330
2A
102
}
102
{ACAD_XDICTIONARY
360
73
102
}
330
2A
100
AcDbVisualStyle
  2
GouraudWithEdges
 70
     3
 71
     2
 72
     2
 73
     1
 90
        2
 40
-0.6
 41
30.0
 62
     5
 63
     7
 74
     1
 91
        4
 64
     7
 65
   257
 75
     1
175
     1
 42
1.0
 92
        0
 66
   257
 43
1.0
 76
     1
 77
     6
 78
     2
 67
     7
 79
     5
170
     0
171
     0
290
     0
174
     0
 93
       13
 44
0.0
173
     0
291
     1
 45
0.0
1001
ACAD
1000
AcDbSavedByObjectVersion
1070
     0
  0
VISUALSTYLE
  5
38
102
{ACAD_REACTORS
330
2A
102
}
102
{ACAD_XDICTIONARY
360
87
102
}
330
2A
100
AcDbVisualStyle
  2
Linepattern
 70
    14
 71
     2
 72
     2
 73
     0
 90
        0
 40
-0.6
 41
-30.0
 62
     5
 63
     7
 74
     1
 91
        4
 64
     7
 65
   257
 75
     7
175
     7
 42
1.0
 92
        8
 66
     7
 43
1.0
 76
     1
 77
     6
 78
     2
 67
     7
 79
     5
170
     0
171
     0
290
     0
174
     0
 93
        1
 44
0.0
173
     0
291
     1
 45
0.0
1001
ACAD
1000
AcDbSavedByObjectVersion
1070
     0
  0
VISUALSTYLE
  5
33
102
{ACAD_REACTORS
330
2A
102
}
102
{ACAD_XDICTIONARY
360
7D
102
}
330
2A
100
AcDbVisualStyle
  2
Realistic
 70
     8
 71
     2
 72
     2
 73
     0
 90
        0
 40
-0.6
 41
-30.0
 62
     5
 63
     7
 74
     1
 91
        0
 64
     7
 65
   257
 75
     1
175
     1
 42
1.0
 92
        8
 66
     8
 43
1.0
 76
     1
 77
     6
 78
     2
 67
     7
 79
     5
170
     0
171
     0
290
     0
174
     0
 93
       13
 44
0.0
173
     0
291
     0
 45
0.0
1001
ACAD
1000
AcDbSavedByObjectVersion
1070
     0
  0
VISUALSTYLE
  5
37
102
{ACAD_REACTORS
330
2A
102
}
102
{ACAD_XDICTIONARY
360
85
102
}
330
2A
100
AcDbVisualStyle
  2
Thicken
 70
    13
 71
     2
 72
     2
 73
     0
 90
        0
 40
-0.6
 41
-30.0
 62
     5
 63
     7
 74
     1
 91
        4
 64
     7
 65
   257
 75
     1
175
     1
 42
1.0
 92
       12
 66
     7
 43
1.0
 76
     1
 77
     6
 78
     2
 67
     7
 79
     5
170
     0
171
     0
290
     0
174
     0
 93
        1
 44
0.0
173
     0
291
     1
 45
0.0
1001
ACAD
1000
AcDbSavedByObjectVersion
1070
     0
  0
DICTIONARYVAR
  5
6B
102
{ACAD_REACTORS
330
68
102
}
330
68
100
DictionaryVariables
280
     0
  1
2
  0
DICTIONARYVAR
  5
6C
102
{ACAD_REACTORS
330
68
102
}
330
68
100
DictionaryVariables
280
     0
  1
1
  0
DICTIONARY
  5
8F
330
3D
100
AcDbDictionary
280
     1
281
     1
  3
ACAD_XREC_ROUNDTRIP
360
90
  0
DICTIONARY
  5
8D
330
3C
100
AcDbDictionary
280
     1
281
     1
  3
ACAD_XREC_ROUNDTRIP
360
8E
  0
DICTIONARY
  5
91
330
3E
100
AcDbDictionary
280
     1
281
     1
  3
ACAD_XREC_ROUNDTRIP
360
92
  0
DICTIONARY
  5
75
330
2F
100
AcDbDictionary
280
     1
281
     1
  3
ACAD_XREC_ROUNDTRIP
360
76
  0
DICTIONARY
  5
79
330
31
100
AcDbDictionary
280
     1
281
     1
  3
ACAD_XREC_ROUNDTRIP
360
7A
  0
DICTIONARY
  5
77
330
30
100
AcDbDictionary
280
     1
281
     1
  3
ACAD_XREC_ROUNDTRIP
360
78
  0
DICTIONARY
  5
7B
330
32
100
AcDbDictionary
280
     1
281
     1
  3
ACAD_XREC_ROUNDTRIP
360
7C
  0
DICTIONARY
  5
83
330
36
100
AcDbDictionary
280
     1
281
     1
  3
ACAD_XREC_ROUNDTRIP
360
84
  0
DICTIONARY
  5
8B
330
3A
100
AcDbDictionary
280
     1
281
     1
  3
ACAD_XREC_ROUNDTRIP
360
8C
  0
DICTIONARY
  5
7F
330
34
100
AcDbDictionary
280
     1
281
     1
  3
ACAD_XREC_ROUNDTRIP
360
80
  0
DICTIONARY
  5
81
330
35
100
AcDbDictionary
280
     1
281
     1
  3
ACAD_XREC_ROUNDTRIP
360
82
  0
DICTIONARY
  5
89
330
39
100
AcDbDictionary
280
     1
281
     1
  3
ACAD_XREC_ROUNDTRIP
360
8A
  0
DICTIONARY
  5
6D
330
2B
100
AcDbDictionary
280
     1
281
     1
  3
ACAD_XREC_ROUNDTRIP
360
6E
  0
DICTIONARY
  5
6F
330
2C
100
AcDbDictionary
280
     1
281
     1
  3
ACAD_XREC_ROUNDTRIP
360
70
  0
DICTIONARY
  5
71
330
2D
100
AcDbDictionary
280
     1
281
     1
  3
ACAD_XREC_ROUNDTRIP
360
72
  0
DICTIONARY
  5
73
330
2E
100
AcDbDictionary
280
     1
281
     1
  3
ACAD_XREC_ROUNDTRIP
360
74
  0
DICTIONARY
  5
87
330
38
100
AcDbDictionary
280
     1
281
     1
  3
ACAD_XREC_ROUNDTRIP
360
88
  0
DICTIONARY
  5
7D
330
33
100
AcDbDictionary
280
     1
281
     1
  3
ACAD_XREC_ROUNDTRIP
360
7E
  0
DICTIONARY
  5
85
330
37
100
AcDbDictionary
280
     1
281
     1
  3
ACAD_XREC_ROUNDTRIP
360
86
  0
XRECORD
  5
90
102
{ACAD_REACTORS
330
8F
102
}
330
8F
100
AcDbXrecord
280
     1
102
MATERIAL
148
0.0
149
0.0
149
0.0
 93
        0
 94
      127
282
     0
 72
     1
 77
     1
171
     1
175
     1
179
     1
273
     0
  0
XRECORD
  5
8E
102
{ACAD_REACTORS
330
8D
102
}
330
8D
100
AcDbXrecord
280
     1
102
MATERIAL
148
0.0
149
0.0
149
0.0
 93
        0
 94
      127
282
     0
 72
     1
 77
     1
171
     1
175
     1
179
     1
273
     0
  0
XRECORD
  5
92
102
{ACAD_REACTORS
330
91
102
}
330
91
100
AcDbXrecord
280
     1
102
MATERIAL
148
0.0
149
0.0
149
0.0
 93
        0
 94
      127
282
     0
 72
     1
 77
     1
171
     1
175
     1
179
     1
273
     0
  0
XRECORD
  5
76
102
{ACAD_REACTORS
330
75
102
}
330
75
100
AcDbXrecord
280
     1
102
RTVSPropertyOp0
 70
     1
102
RTVSPropertyOp1
 70
     1
102
RTVSPropertyOp2
 70
     1
102
RTVSPropertyOp3
 70
     1
102
RTVSPropertyOp4
 70
     1
102
RTVSPropertyOp5
 70
     1
102
RTVSPropertyOp6
 70
     1
102
RTVSPropertyOp7
 70
     1
102
RTVSPropertyOp8
 70
     1
102
RTVSPropertyOp9
 70
     1
102
RTVSPropertyOp10
 70
     1
102
RTVSPropertyOp11
 70
     1
102
RTVSPropertyOp12
 70
     1
102
RTVSPropertyOp13
 70
     1
102
RTVSPropertyOp14
 70
     1
102
RTVSPropertyOp15
 70
     1
102
RTVSPropertyOp16
 70
     1
102
RTVSPropertyOp17
 70
     1
102
RTVSPropertyOp18
 70
     1
102
RTVSPropertyOp19
 70
     1
102
RTVSPropertyOp20
 70
     1
102
RTVSPropertyOp21
 70
     1
102
RTVSPropertyOp22
 70
     1
102
RTVSPropertyOp23
 70
     1
102
RTVSPropertyOp24
 70
     1
102
RTVSPropertyOp25
 70
     1
102
RTVSPropertyOp26
 70
     1
102
RTVSPropertyOp27
 70
     1
102
RTVSPropertyOp28
 70
     1
102
RTVSPropertyOp29
 70
     1
102
RTVSPropertyOp30
 70
     1
102
RTVSPropertyOp31
 70
     1
102
RTVSPropertyOp32
 70
     1
  0
XRECORD
  5
7A
102
{ACAD_REACTORS
330
79
102
}
330
79
100
AcDbXrecord
280
     1
102
RTVSPropertyOp0
 70
     1
102
RTVSPropertyOp1
 70
     1
102
RTVSPropertyOp2
 70
     1
102
RTVSPropertyOp3
 70
     1
102
RTVSPropertyOp4
 70
     1
102
RTVSPropertyOp5
 70
     1
102
RTVSPropertyOp6
 70
     1
102
RTVSPropertyOp7
 70
     1
102
RTVSPropertyOp8
 70
     1
102
RTVSPropertyOp9
 70
     1
102
RTVSPropertyOp10
 70
     1
102
RTVSPropertyOp11
 70
     1
102
RTVSPropertyOp12
 70
     1
102
RTVSPropertyOp13
 70
     1
102
RTVSPropertyOp14
 70
     1
102
RTVSPropertyOp15
 70
     1
102
RTVSPropertyOp16
 70
     1
102
RTVSPropertyOp17
 70
     1
102
RTVSPropertyOp18
 70
     1
102
RTVSPropertyOp19
 70
     1
102
RTVSPropertyOp20
 70
     1
102
RTVSPropertyOp21
 70
     1
102
RTVSPropertyOp22
 70
     1
102
RTVSPropertyOp23
 70
     1
102
RTVSPropertyOp24
 70
     1
102
RTVSPropertyOp25
 70
     1
102
RTVSPropertyOp26
 70
     1
102
RTVSPropertyOp27
 70
     1
102
RTVSPropertyOp28
 70
     1
102
RTVSPropertyOp29
 70
     1
102
RTVSPropertyOp30
 70
     1
102
RTVSPropertyOp31
 70
     1
102
RTVSPropertyOp32
 70
     1
  0
XRECORD
  5
78
102
{ACAD_REACTORS
330
77
102
}
330
77
100
AcDbXrecord
280
     1
102
RTVSPropertyOp0
 70
     1
102
RTVSPropertyOp1
 70
     1
102
RTVSPropertyOp2
 70
     1
102
RTVSPropertyOp3
 70
     1
102
RTVSPropertyOp4
 70
     1
102
RTVSPropertyOp5
 70
     1
102
RTVSPropertyOp6
 70
     1
102
RTVSPropertyOp7
 70
     1
102
RTVSPropertyOp8
 70
     1
102
RTVSPropertyOp9
 70
     1
102
RTVSPropertyOp10
 70
     1
102
RTVSPropertyOp11
 70
     1
102
RTVSPropertyOp12
 70
     1
102
RTVSPropertyOp13
 70
     1
102
RTVSPropertyOp14
 70
     1
102
RTVSPropertyOp15
 70
     1
102
RTVSPropertyOp16
 70
     1
102
RTVSPropertyOp17
 70
     1
102
RTVSPropertyOp18
 70
     1
102
RTVSPropertyOp19
 70
     1
102
RTVSPropertyOp20
 70
     1
102
RTVSPropertyOp21
 70
     1
102
RTVSPropertyOp22
 70
     1
102
RTVSPropertyOp23
 70
     1
102
RTVSPropertyOp24
 70
     1
102
RTVSPropertyOp25
 70
     1
102
RTVSPropertyOp26
 70
     1
102
RTVSPropertyOp27
 70
     1
102
RTVSPropertyOp28
 70
     1
102
RTVSPropertyOp29
 70
     1
102
RTVSPropertyOp30
 70
     1
102
RTVSPropertyOp31
 70
     1
102
RTVSPropertyOp32
 70
     1
  0
XRECORD
  5
7C
102
{ACAD_REACTORS
330
7B
102
}
330
7B
100
AcDbXrecord
280
     1
102
RTVSPropertyOp0
 70
     1
102
RTVSPropertyOp1
 70
     1
102
RTVSPropertyOp2
 70
     1
102
RTVSPropertyOp3
 70
     1
102
RTVSPropertyOp4
 70
     1
102
RTVSPropertyOp5
 70
     1
102
RTVSPropertyOp6
 70
     1
102
RTVSPropertyOp7
 70
     1
102
RTVSPropertyOp8
 70
     1
102
RTVSPropertyOp9
 70
     1
102
RTVSPropertyOp10
 70
     1
102
RTVSPropertyOp11
 70
     1
102
RTVSPropertyOp12
 70
     1
102
RTVSPropertyOp13
 70
     1
102
RTVSPropertyOp14
 70
     1
102
RTVSPropertyOp15
 70
     1
102
RTVSPropertyOp16
 70
     1
102
RTVSPropertyOp17
 70
     1
102
RTVSPropertyOp18
 70
     1
102
RTVSPropertyOp19
 70
     1
102
RTVSPropertyOp20
 70
     1
102
RTVSPropertyOp21
 70
     1
102
RTVSPropertyOp22
 70
     1
102
RTVSPropertyOp23
 70
     1
102
RTVSPropertyOp24
 70
     1
102
RTVSPropertyOp25
 70
     1
102
RTVSPropertyOp26
 70
     1
102
RTVSPropertyOp27
 70
     1
102
RTVSPropertyOp28
 70
     1
102
RTVSPropertyOp29
 70
     1
102
RTVSPropertyOp30
 70
     1
102
RTVSPropertyOp31
 70
     1
102
RTVSPropertyOp32
 70
     1
  0
XRECORD
  5
84
102
{ACAD_REACTORS
330
83
102
}
330
83
100
AcDbXrecord
280
     1
102
RTVSPropertyOp0
 70
     1
102
RTVSPropertyOp1
 70
     1
102
RTVSPropertyOp2
 70
     1
102
RTVSPropertyOp3
 70
     1
102
RTVSPropertyOp4
 70
     1
102
RTVSPropertyOp5
 70
     1
102
RTVSPropertyOp6
 70
     1
102
RTVSPropertyOp7
 70
     1
102
RTVSPropertyOp8
 70
     1
102
RTVSPropertyOp9
 70
     1
102
RTVSPropertyOp10
 70
     1
102
RTVSPropertyOp11
 70
     1
102
RTVSPropertyOp12
 70
     1
102
RTVSPropertyOp13
 70
     1
102
RTVSPropertyOp14
 70
     1
102
RTVSPropertyOp15
 70
     1
102
RTVSPropertyOp16
 70
     1
102
RTVSPropertyOp17
 70
     1
102
RTVSPropertyOp18
 70
     1
102
RTVSPropertyOp19
 70
     1
102
RTVSPropertyOp20
 70
     1
102
RTVSPropertyOp21
 70
     1
102
RTVSPropertyOp22
 70
     1
102
RTVSPropertyOp23
 70
     1
102
RTVSPropertyOp24
 70
     1
102
RTVSPropertyOp25
 70
     1
102
RTVSPropertyOp26
 70
     1
102
RTVSPropertyOp27
 70
     1
102
RTVSPropertyOp28
 70
     1
102
RTVSPropertyOp29
 70
     1
102
RTVSPropertyOp30
 70
     1
102
RTVSPropertyOp31
 70
     1
102
RTVSPropertyOp32
 70
     1
  0
XRECORD
  5
8C
102
{ACAD_REACTORS
330
8B
102
}
330
8B
100
AcDbXrecord
280
     1
102
RTVSPropertyOp0
 70
     1
102
RTVSPropertyOp1
 70
     1
102
RTVSPropertyOp2
 70
     1
102
RTVSPropertyOp3
 70
     1
102
RTVSPropertyOp4
 70
     1
102
RTVSPropertyOp5
 70
     1
102
RTVSPropertyOp6
 70
     1
102
RTVSPropertyOp7
 70
     1
102
RTVSPropertyOp8
 70
     1
102
RTVSPropertyOp9
 70
     1
102
RTVSPropertyOp10
 70
     1
102
RTVSPropertyOp11
 70
     1
102
RTVSPropertyOp12
 70
     1
102
RTVSPropertyOp13
 70
     1
102
RTVSPropertyOp14
 70
     1
102
RTVSPropertyOp15
 70
     1
102
RTVSPropertyOp16
 70
     1
102
RTVSPropertyOp17
 70
     1
102
RTVSPropertyOp18
 70
     1
102
RTVSPropertyOp19
 70
     1
102
RTVSPropertyOp20
 70
     1
102
RTVSPropertyOp21
 70
     1
102
RTVSPropertyOp22
 70
     1
102
RTVSPropertyOp23
 70
     1
102
RTVSPropertyOp24
 70
     1
102
RTVSPropertyOp25
 70
     1
102
RTVSPropertyOp26
 70
     1
102
RTVSPropertyOp27
 70
     1
102
RTVSPropertyOp28
 70
     1
102
RTVSPropertyOp29
 70
     1
102
RTVSPropertyOp30
 70
     1
102
RTVSPropertyOp31
 70
     1
102
RTVSPropertyOp32
 70
     1
  0
XRECORD
  5
80
102
{ACAD_REACTORS
330
7F
102
}
330
7F
100
AcDbXrecord
280
     1
102
RTVSPropertyOp0
 70
     1
102
RTVSPropertyOp1
 70
     1
102
RTVSPropertyOp2
 70
     1
102
RTVSPropertyOp3
 70
     1
102
RTVSPropertyOp4
 70
     1
102
RTVSPropertyOp5
 70
     1
102
RTVSPropertyOp6
 70
     1
102
RTVSPropertyOp7
 70
     1
102
RTVSPropertyOp8
 70
     1
102
RTVSPropertyOp9
 70
     1
102
RTVSPropertyOp10
 70
     1
102
RTVSPropertyOp11
 70
     1
102
RTVSPropertyOp12
 70
     1
102
RTVSPropertyOp13
 70
     1
102
RTVSPropertyOp14
 70
     1
102
RTVSPropertyOp15
 70
     1
102
RTVSPropertyOp16
 70
     1
102
RTVSPropertyOp17
 70
     1
102
RTVSPropertyOp18
 70
     1
102
RTVSPropertyOp19
 70
     1
102
RTVSPropertyOp20
 70
     1
102
RTVSPropertyOp21
 70
     1
102
RTVSPropertyOp22
 70
     1
102
RTVSPropertyOp23
 70
     1
102
RTVSPropertyOp24
 70
     1
102
RTVSPropertyOp25
 70
     1
102
RTVSPropertyOp26
 70
     1
102
RTVSPropertyOp27
 70
     1
102
RTVSPropertyOp28
 70
     1
102
RTVSPropertyOp29
 70
     1
102
RTVSPropertyOp30
 70
     1
102
RTVSPropertyOp31
 70
     1
102
RTVSPropertyOp32
 70
     1
  0
XRECORD
  5
82
102
{ACAD_REACTORS
330
81
102
}
330
81
100
AcDbXrecord
280
     1
102
RTVSPropertyOp0
 70
     1
102
RTVSPropertyOp1
 70
     1
102
RTVSPropertyOp2
 70
     1
102
RTVSPropertyOp3
 70
     1
102
RTVSPropertyOp4
 70
     1
102
RTVSPropertyOp5
 70
     1
102
RTVSPropertyOp6
 70
     1
102
RTVSPropertyOp7
 70
     1
102
RTVSPropertyOp8
 70
     1
102
RTVSPropertyOp9
 70
     1
102
RTVSPropertyOp10
 70
     1
102
RTVSPropertyOp11
 70
     1
102
RTVSPropertyOp12
 70
     1
102
RTVSPropertyOp13
 70
     1
102
RTVSPropertyOp14
 70
     1
102
RTVSPropertyOp15
 70
     1
102
RTVSPropertyOp16
 70
     1
102
RTVSPropertyOp17
 70
     1
102
RTVSPropertyOp18
 70
     1
102
RTVSPropertyOp19
 70
     1
102
RTVSPropertyOp20
 70
     1
102
RTVSPropertyOp21
 70
     1
102
RTVSPropertyOp22
 70
     1
102
RTVSPropertyOp23
 70
     1
102
RTVSPropertyOp24
 70
     1
102
RTVSPropertyOp25
 70
     1
102
RTVSPropertyOp26
 70
     1
102
RTVSPropertyOp27
 70
     1
102
RTVSPropertyOp28
 70
     1
102
RTVSPropertyOp29
 70
     1
102
RTVSPropertyOp30
 70
     1
102
RTVSPropertyOp31
 70
     1
102
RTVSPropertyOp32
 70
     1
  0
XRECORD
  5
8A
102
{ACAD_REACTORS
330
89
102
}
330
89
100
AcDbXrecord
280
     1
102
RTVSPropertyOp0
 70
     1
102
RTVSPropertyOp1
 70
     1
102
RTVSPropertyOp2
 70
     1
102
RTVSPropertyOp3
 70
     1
102
RTVSPropertyOp4
 70
     1
102
RTVSPropertyOp5
 70
     1
102
RTVSPropertyOp6
 70
     1
102
RTVSPropertyOp7
 70
     1
102
RTVSPropertyOp8
 70
     1
102
RTVSPropertyOp9
 70
     1
102
RTVSPropertyOp10
 70
     1
102
RTVSPropertyOp11
 70
     1
102
RTVSPropertyOp12
 70
     1
102
RTVSPropertyOp13
 70
     1
102
RTVSPropertyOp14
 70
     1
102
RTVSPropertyOp15
 70
     1
102
RTVSPropertyOp16
 70
     1
102
RTVSPropertyOp17
 70
     1
102
RTVSPropertyOp18
 70
     1
102
RTVSPropertyOp19
 70
     1
102
RTVSPropertyOp20
 70
     1
102
RTVSPropertyOp21
 70
     1
102
RTVSPropertyOp22
 70
     1
102
RTVSPropertyOp23
 70
     1
102
RTVSPropertyOp24
 70
     1
102
RTVSPropertyOp25
 70
     1
102
RTVSPropertyOp26
 70
     1
102
RTVSPropertyOp27
 70
     1
102
RTVSPropertyOp28
 70
     1
102
RTVSPropertyOp29
 70
     1
102
RTVSPropertyOp30
 70
     1
102
RTVSPropertyOp31
 70
     1
102
RTVSPropertyOp32
 70
     1
  0
XRECORD
  5
6E
102
{ACAD_REACTORS
330
6D
102
}
330
6D
100
AcDbXrecord
280
     1
102
RTVSPropertyOp0
 70
     1
102
RTVSPropertyOp1
 70
     1
102
RTVSPropertyOp2
 70
     1
102
RTVSPropertyOp3
 70
     1
102
RTVSPropertyOp4
 70
     1
102
RTVSPropertyOp5
 70
     1
102
RTVSPropertyOp6
 70
     1
102
RTVSPropertyOp7
 70
     1
102
RTVSPropertyOp8
 70
     1
102
RTVSPropertyOp9
 70
     1
102
RTVSPropertyOp10
 70
     1
102
RTVSPropertyOp11
 70
     1
102
RTVSPropertyOp12
 70
     1
102
RTVSPropertyOp13
 70
     1
102
RTVSPropertyOp14
 70
     1
102
RTVSPropertyOp15
 70
     1
102
RTVSPropertyOp16
 70
     1
102
RTVSPropertyOp17
 70
     1
102
RTVSPropertyOp18
 70
     1
102
RTVSPropertyOp19
 70
     1
102
RTVSPropertyOp20
 70
     1
102
RTVSPropertyOp21
 70
     1
102
RTVSPropertyOp22
 70
     1
102
RTVSPropertyOp23
 70
     1
102
RTVSPropertyOp24
 70
     1
102
RTVSPropertyOp25
 70
     1
102
RTVSPropertyOp26
 70
     1
102
RTVSPropertyOp27
 70
     1
102
RTVSPropertyOp28
 70
     1
102
RTVSPropertyOp29
 70
     1
102
RTVSPropertyOp30
 70
     1
102
RTVSPropertyOp31
 70
     1
102
RTVSPropertyOp32
 70
     1
  0
XRECORD
  5
70
102
{ACAD_REACTORS
330
6F
102
}
330
6F
100
AcDbXrecord
280
     1
102
RTVSPropertyOp0
 70
     1
102
RTVSPropertyOp1
 70
     1
102
RTVSPropertyOp2
 70
     1
102
RTVSPropertyOp3
 70
     1
102
RTVSPropertyOp4
 70
     1
102
RTVSPropertyOp5
 70
     1
102
RTVSPropertyOp6
 70
     1
102
RTVSPropertyOp7
 70
     1
102
RTVSPropertyOp8
 70
     1
102
RTVSPropertyOp9
 70
     1
102
RTVSPropertyOp10
 70
     1
102
RTVSPropertyOp11
 70
     1
102
RTVSPropertyOp12
 70
     1
102
RTVSPropertyOp13
 70
     1
102
RTVSPropertyOp14
 70
     1
102
RTVSPropertyOp15
 70
     1
102
RTVSPropertyOp16
 70
     1
102
RTVSPropertyOp17
 70
     1
102
RTVSPropertyOp18
 70
     1
102
RTVSPropertyOp19
 70
     1
102
RTVSPropertyOp20
 70
     1
102
RTVSPropertyOp21
 70
     1
102
RTVSPropertyOp22
 70
     1
102
RTVSPropertyOp23
 70
     1
102
RTVSPropertyOp24
 70
     1
102
RTVSPropertyOp25
 70
     1
102
RTVSPropertyOp26
 70
     1
102
RTVSPropertyOp27
 70
     1
102
RTVSPropertyOp28
 70
     1
102
RTVSPropertyOp29
 70
     1
102
RTVSPropertyOp30
 70
     1
102
RTVSPropertyOp31
 70
     1
102
RTVSPropertyOp32
 70
     1
  0
XRECORD
  5
72
102
{ACAD_REACTORS
330
71
102
}
330
71
100
AcDbXrecord
280
     1
102
RTVSPropertyOp0
 70
     1
102
RTVSPropertyOp1
 70
     1
102
RTVSPropertyOp2
 70
     1
102
RTVSPropertyOp3
 70
     1
102
RTVSPropertyOp4
 70
     1
102
RTVSPropertyOp5
 70
     1
102
RTVSPropertyOp6
 70
     1
102
RTVSPropertyOp7
 70
     1
102
RTVSPropertyOp8
 70
     1
102
RTVSPropertyOp9
 70
     1
102
RTVSPropertyOp10
 70
     1
102
RTVSPropertyOp11
 70
     1
102
RTVSPropertyOp12
 70
     1
102
RTVSPropertyOp13
 70
     1
102
RTVSPropertyOp14
 70
     1
102
RTVSPropertyOp15
 70
     1
102
RTVSPropertyOp16
 70
     1
102
RTVSPropertyOp17
 70
     1
102
RTVSPropertyOp18
 70
     1
102
RTVSPropertyOp19
 70
     1
102
RTVSPropertyOp20
 70
     1
102
RTVSPropertyOp21
 70
     1
102
RTVSPropertyOp22
 70
     1
102
RTVSPropertyOp23
 70
     1
102
RTVSPropertyOp24
 70
     1
102
RTVSPropertyOp25
 70
     1
102
RTVSPropertyOp26
 70
     1
102
RTVSPropertyOp27
 70
     1
102
RTVSPropertyOp28
 70
     1
102
RTVSPropertyOp29
 70
     1
102
RTVSPropertyOp30
 70
     1
102
RTVSPropertyOp31
 70
     1
102
RTVSPropertyOp32
 70
     1
  0
XRECORD
  5
74
102
{ACAD_REACTORS
330
73
102
}
330
73
100
AcDbXrecord
280
     1
102
RTVSPropertyOp0
 70
     1
102
RTVSPropertyOp1
 70
     1
102
RTVSPropertyOp2
 70
     1
102
RTVSPropertyOp3
 70
     1
102
RTVSPropertyOp4
 70
     1
102
RTVSPropertyOp5
 70
     1
102
RTVSPropertyOp6
 70
     1
102
RTVSPropertyOp7
 70
     1
102
RTVSPropertyOp8
 70
     1
102
RTVSPropertyOp9
 70
     1
102
RTVSPropertyOp10
 70
     1
102
RTVSPropertyOp11
 70
     1
102
RTVSPropertyOp12
 70
     1
102
RTVSPropertyOp13
 70
     1
102
RTVSPropertyOp14
 70
     1
102
RTVSPropertyOp15
 70
     1
102
RTVSPropertyOp16
 70
     1
102
RTVSPropertyOp17
 70
     1
102
RTVSPropertyOp18
 70
     1
102
RTVSPropertyOp19
 70
     1
102
RTVSPropertyOp20
 70
     1
102
RTVSPropertyOp21
 70
     1
102
RTVSPropertyOp22
 70
     1
102
RTVSPropertyOp23
 70
     1
102
RTVSPropertyOp24
 70
     1
102
RTVSPropertyOp25
 70
     1
102
RTVSPropertyOp26
 70
     1
102
RTVSPropertyOp27
 70
     1
102
RTVSPropertyOp28
 70
     1
102
RTVSPropertyOp29
 70
     1
102
RTVSPropertyOp30
 70
     1
102
RTVSPropertyOp31
 70
     1
102
RTVSPropertyOp32
 70
     1
  0
XRECORD
  5
88
102
{ACAD_REACTORS
330
87
102
}
330
87
100
AcDbXrecord
280
     1
102
RTVSPropertyOp0
 70
     1
102
RTVSPropertyOp1
 70
     1
102
RTVSPropertyOp2
 70
     1
102
RTVSPropertyOp3
 70
     1
102
RTVSPropertyOp4
 70
     1
102
RTVSPropertyOp5
 70
     1
102
RTVSPropertyOp6
 70
     1
102
RTVSPropertyOp7
 70
     1
102
RTVSPropertyOp8
 70
     1
102
RTVSPropertyOp9
 70
     1
102
RTVSPropertyOp10
 70
     1
102
RTVSPropertyOp11
 70
     1
102
RTVSPropertyOp12
 70
     1
102
RTVSPropertyOp13
 70
     1
102
RTVSPropertyOp14
 70
     1
102
RTVSPropertyOp15
 70
     1
102
RTVSPropertyOp16
 70
     1
102
RTVSPropertyOp17
 70
     1
102
RTVSPropertyOp18
 70
     1
102
RTVSPropertyOp19
 70
     1
102
RTVSPropertyOp20
 70
     1
102
RTVSPropertyOp21
 70
     1
102
RTVSPropertyOp22
 70
     1
102
RTVSPropertyOp23
 70
     1
102
RTVSPropertyOp24
 70
     1
102
RTVSPropertyOp25
 70
     1
102
RTVSPropertyOp26
 70
     1
102
RTVSPropertyOp27
 70
     1
102
RTVSPropertyOp28
 70
     1
102
RTVSPropertyOp29
 70
     1
102
RTVSPropertyOp30
 70
     1
102
RTVSPropertyOp31
 70
     1
102
RTVSPropertyOp32
 70
     1
  0
XRECORD
  5
7E
102
{ACAD_REACTORS
330
7D
102
}
330
7D
100
AcDbXrecord
280
     1
102
RTVSPropertyOp0
 70
     1
102
RTVSPropertyOp1
 70
     1
102
RTVSPropertyOp2
 70
     1
102
RTVSPropertyOp3
 70
     1
102
RTVSPropertyOp4
 70
     1
102
RTVSPropertyOp5
 70
     1
102
RTVSPropertyOp6
 70
     1
102
RTVSPropertyOp7
 70
     1
102
RTVSPropertyOp8
 70
     1
102
RTVSPropertyOp9
 70
     1
102
RTVSPropertyOp10
 70
     1
102
RTVSPropertyOp11
 70
     1
102
RTVSPropertyOp12
 70
     1
102
RTVSPropertyOp13
 70
     1
102
RTVSPropertyOp14
 70
     1
102
RTVSPropertyOp15
 70
     1
102
RTVSPropertyOp16
 70
     1
102
RTVSPropertyOp17
 70
     1
102
RTVSPropertyOp18
 70
     1
102
RTVSPropertyOp19
 70
     1
102
RTVSPropertyOp20
 70
     1
102
RTVSPropertyOp21
 70
     1
102
RTVSPropertyOp22
 70
     1
102
RTVSPropertyOp23
 70
     1
102
RTVSPropertyOp24
 70
     1
102
RTVSPropertyOp25
 70
     1
102
RTVSPropertyOp26
 70
     1
102
RTVSPropertyOp27
 70
     1
102
RTVSPropertyOp28
 70
     1
102
RTVSPropertyOp29
 70
     1
102
RTVSPropertyOp30
 70
     1
102
RTVSPropertyOp31
 70
     1
102
RTVSPropertyOp32
 70
     1
  0
XRECORD
  5
86
102
{ACAD_REACTORS
330
85
102
}
330
85
100
AcDbXrecord
280
     1
102
RTVSPropertyOp0
 70
     1
102
RTVSPropertyOp1
 70
     1
102
RTVSPropertyOp2
 70
     1
102
RTVSPropertyOp3
 70
     1
102
RTVSPropertyOp4
 70
     1
102
RTVSPropertyOp5
 70
     1
102
RTVSPropertyOp6
 70
     1
102
RTVSPropertyOp7
 70
     1
102
RTVSPropertyOp8
 70
     1
102
RTVSPropertyOp9
 70
     1
102
RTVSPropertyOp10
 70
     1
102
RTVSPropertyOp11
 70
     1
102
RTVSPropertyOp12
 70
     1
102
RTVSPropertyOp13
 70
     1
102
RTVSPropertyOp14
 70
     1
102
RTVSPropertyOp15
 70
     1
102
RTVSPropertyOp16
 70
     1
102
RTVSPropertyOp17
 70
     1
102
RTVSPropertyOp18
 70
     1
102
RTVSPropertyOp19
 70
     1
102
RTVSPropertyOp20
 70
     1
102
RTVSPropertyOp21
 70
     1
102
RTVSPropertyOp22
 70
     1
102
RTVSPropertyOp23
 70
     1
102
RTVSPropertyOp24
 70
     1
102
RTVSPropertyOp25
 70
     1
102
RTVSPropertyOp26
 70
     1
102
RTVSPropertyOp27
 70
     1
102
RTVSPropertyOp28
 70
     1
102
RTVSPropertyOp29
 70
     1
102
RTVSPropertyOp30
 70
     1
102
RTVSPropertyOp31
 70
     1
102
RTVSPropertyOp32
 70
     1
  0
ENDSEC
  0
EOF
